<?xml version="1.0" encoding="utf-8"?>
<!-- Generator: Adobe Illustrator 21.1.0, SVG Export Plug-In . SVG Version: 6.00 Build 0)  -->
<svg version="1.1" id="Calque_1" xmlns="http://www.w3.org/2000/svg" xmlns:xlink="http://www.w3.org/1999/xlink" x="0px" y="0px"
	 viewBox="0 0 432 432" style="enable-background:new 0 0 432 432;" xml:space="preserve">
<style type="text/css">
	.st0{fill:#AE3034;}
	.st1{fill:#3E904D;}
	.st2{fill:#F7EB5B;}
	.st3{fill:#221F20;}
	.st4{fill:#BC9A72;}
	.st5{fill:#FFFFFF;}
	.st6{fill:#E9963E;}
	.st7{fill:#EFB156;}
	.st8{fill:#5EB057;}
	.st9{fill:#A27D56;}
	.st10{fill:#BD8346;}
	.st11{fill:#DD658D;}
	.st12{fill:#404041;}
	.st13{fill:#81BF8E;}
	.st14{fill:#ED7E87;}
	.st15{fill:#B0202B;}
	.st16{fill:#BA9453;}
	.st17{fill:#B99352;}
	.st18{fill:#45A49C;}
	.st19{fill:#59B178;}
	.st20{fill:#C9A25F;}
	.st21{fill:#BCBDBF;}
	.st22{fill:#C7345D;}
	.st23{fill:#2E3192;}
	.st24{fill:#8CC63F;}
	.st25{fill:#22B573;}
	.st26{fill:#333333;}
	.st27{fill:#B1A097;}
	.st28{fill:#574B43;}
	.st29{fill:#85328A;}
	.st30{fill:#53A7DB;}
	.st31{fill:#912D61;}
	.st32{fill:#835F41;}
	.st33{fill:#929496;}
	.st34{fill:#808080;}
	.st35{fill:#6F4E2F;}
	.st36{fill:#A6A8AA;}
	.st37{fill:#DF643A;}
	.st38{fill:#98C355;}
	.st39{fill:#D35998;}
	.st40{fill:#6F665A;}
	.st41{fill:#BFB49D;}
	.st42{fill:#AE82B3;}
	.st43{fill:#B3B3B3;}
	.st44{fill:#5E328B;}
	.st45{fill:#DA404D;}
	.st46{fill:#A994C1;}
	.st47{fill:#8B575B;}
	.st48{fill:#C9C0AF;}
	.st49{fill:#A67C52;}
	.st50{fill:#86A391;}
	.st51{fill:#6595A9;}
	.st52{fill:#483E49;}
	.st53{fill:#F6BA00;}
	.st54{fill:#FC8080;}
	.st55{fill:#1A1A1A;}
	.st56{fill:#749FA8;}
	.st57{fill:#ABC337;}
	.st58{fill:#F67E20;}
	.st59{fill:#52A9B2;}
	.st60{fill:#925A8B;}
	.st61{fill:#DD8383;}
	.st62{fill:#929C3B;}
	.st63{fill:#4D4D4D;}
	.st64{fill:#C69C6D;}
	.st65{fill:#DBB753;}
	.st66{fill:#9EB9B4;}
	.st67{fill:#F2F2F2;}
	.st68{fill:#E2C87F;}
	.st69{fill:#E8BDC4;}
	.st70{fill:#D86D29;}
	.st71{fill:#E0CDAD;}
	.st72{fill:#E6E6E6;}
	.st73{fill:#CCD6CE;}
	.st74{fill:#9FD3C7;}
	.st75{fill-rule:evenodd;clip-rule:evenodd;}
	.st76{fill:#E5BE51;}
	.st77{fill:#B3A693;}
	.st78{fill:#717370;}
	.st79{fill:#9FB14D;}
	.st80{fill:#736357;}
	.st81{fill:#51642D;}
	.st82{fill:#743315;}
	.st83{fill:#0071BC;}
	.st84{fill:#9C1B20;}
	.st85{fill:#009245;}
	.st86{fill:#F6E6CC;}
	.st87{fill:#84CBCB;}
	.st88{fill:#7D9B39;}
	.st89{fill:#3C4E5C;}
	.st90{fill:#998675;}
	.st91{fill:#C7B299;}
	.st92{fill:#9B2F10;}
	.st93{fill:#E7A136;}
	.st94{fill:#978E43;}
	.st95{fill:#7D5E18;}
	.st96{fill:#F2C545;}
	.st97{fill:#E07D28;}
	.st98{fill:#E0D2BE;}
	.st99{fill:#C4A18D;}
	.st100{fill:#BCBD84;}
	.st101{fill:#5F645E;}
	.st102{fill:#CAC2C2;}
	.st103{fill:#959736;}
	.st104{fill:#B0D24A;}
	.st105{fill:#754C24;}
	.st106{fill:#603813;}
	.st107{fill:#8C4A33;}
	.st108{fill:#0B493A;}
	.st109{fill:#C17953;}
	.st110{fill:#F7C64D;}
	.st111{fill:#005371;}
	.st112{fill:#D3E2DC;}
	.st113{fill:#3E8A64;}
	.st114{fill:#299798;}
	.st115{fill:#731115;}
	.st116{fill:#4F4544;}
	.st117{fill:#4C6047;}
	.st118{fill:#4C301C;}
	.st119{fill:#867274;}
	.st120{fill:#C13F47;}
	.st121{fill:#BC8AA8;}
	.st122{fill:#634E42;}
	.st123{fill:#E1B8D7;}
	.st124{fill:#6D866B;}
	.st125{fill:#422918;}
	.st126{fill:#925F36;}
	.st127{fill:#1D1D1B;}
	.st128{fill:#00A099;}
	.st129{fill:#F8B133;}
	.st130{fill:#006633;}
	.st131{fill:#683B11;}
	.st132{fill:#B17F49;}
	.st133{fill:#A3897A;}
	.st134{fill:#E488B5;}
	.st135{fill:#93C01F;}
	.st136{fill:#EDE287;}
	.st137{fill:#E9CB9A;}
	.st138{fill:#EAB8CC;}
	.st139{fill:#7E4E24;}
	.st140{fill:#E5332A;}
	.st141{fill:#F29100;}
</style>
<g>
	<path class="st55" d="M339.8,303c-0.6-3.8-2.3-7.2-4.7-10.1c-1.8-2.2-3-4.6-3.7-7.3c-0.2-0.8-0.5-1.6-0.6-2.3
		c-1-4.8-2.5-9.4-4.3-14c-0.6-1.5-1-3.1-1.4-4.6c-0.9-3.3-0.8-6.7,0.5-9.9c0.6-1.5,1.1-3,1.8-4.4c1.8-3.9,3.3-7.9,4.4-12
		c1.1-4.4,1.5-8.8,0.7-13.3c-0.6-3.7-1.3-7.4-1.9-11c-1.2-7.2-1.2-14.4-0.4-21.7c0.3-3.2,0.6-6.5,0.9-9.8c0.1-1.2,0.1-2.5,0.2-3.7
		c0.3-3.7,0.6-7.3,1-11c0.2-2.7,0.5-5.4,0.7-8c0.3-3.4,0.7-6.8,1.1-10.1c0.5-4.8,0.2-9.6,0.2-14.4c0-2.4-0.2-4.7-0.1-7.1
		c0.1-2.5,0.4-5,0.7-7.4c0.4-4,0.9-8,0.9-12c0.1-3.7-0.2-7.3-1-10.9c-1.8-7.8-5.7-14.1-12.2-18.8c-2.9-2.1-6-4-9.3-5.5
		c-3.4-1.6-6.7-3.4-9.9-5.5c-2.2-1.4-4.5-2.6-7.1-3c-2-0.3-3.8-0.1-5.6,0.8c-1.5,0.7-2.1,1.9-2,3.6c0.1,0.9,0.3,1.8,0.8,2.6
		c1.3,2.5,3.1,4.7,5.1,6.6c3.3,3.1,6.5,6.2,9.8,9.3c1.3,1.2,2.7,2.4,4.1,3.6c2.6,2.2,5.1,4.5,7.3,7.1c3.2,3.8,5,8.2,4.9,13.3
		c-0.1,2.5-0.6,4.9-1.3,7.3c-1.1,3.5-2.6,6.9-4.3,10.1c-4.5,9.1-7.2,18.8-8.8,28.9c-0.7,4-0.9,8-1.2,12.1c-0.1,1.1-0.2,2.2-0.4,3.3
		c-0.3,1.6-1,2.9-2.6,3.6c-0.7,0.3-1.4,0.6-2.2,0.8c-1.1,0.2-2.3,0.4-3.4,0.4c-2.1,0-4.2-0.1-6.3-0.2c-3.1-0.1-6-0.6-8.8-2
		c-2.7-1.3-5.4-2.5-8-3.8c-6.2-2.9-12.6-4.8-19.5-4.8c-4.8,0-9.6,0.3-14.3,1.2c-8.3,1.6-16.1,4.5-23.6,8.1
		c-7.1,3.3-12.4,8.5-16,15.4c-0.6,1.1-1.2,2.2-1.8,3.3c-1.2,2.3-2.9,4.2-5,5.8c-1.8,1.5-3.9,2.5-6.2,3c-3.8,0.8-7.5,1.7-11.2,3.1
		c-1.6,0.6-3.2,1.1-4.8,1.6c-3.2,1-6.4,0.9-9.6-0.5c-0.8-0.4-1.6-0.7-2.4-1.1c-2-1.1-4-2.2-5.9-3.5c-0.9-0.6-1.7-1.5-2.5-2.3
		c-0.6-0.6-1-1.3-1.6-1.9c-0.5-0.5-1.1-1.1-1.8-1.4c-1.9-1.1-4-0.7-5.5,0.8c-0.6,0.6-1,1.2-1.4,1.9c-0.6,1.1-1.2,2.2-1.6,3.4
		c-1.1,2.9-3,4.9-5.9,6.2c-3.4,1.5-6.5,3.5-9.5,5.8c-0.7,0.6-1.5,1.1-2.3,1.7c-4.7,3.6-8.9,7.7-12.4,12.5c-1.1,1.5-2.5,2.4-4.3,2.7
		c-2.9,0.5-5.6,1.3-8.2,2.8c-1.3,0.8-2.4,1.8-3.3,3.1c-0.9,1.3-0.7,2.6,0.6,3.6c0.4,0.4,0.9,0.7,1.4,0.9c6.2,2.9,12.7,4.6,19.7,3.6
		c0.7-0.1,1.2,0.1,1.6,0.7c0.3,0.5,0.7,0.9,1,1.4c1.1,2,2.2,4.1,3.3,6.1c-1.6,1.7-3.2,3.4-4.8,5.1c-3.8,4-6.5,8.5-8.4,13.7
		c-0.1,0.3-0.2,0.5-0.2,0.8c-0.1,0.5,0,1,0.5,1.2c0.4,0.2,0.8,0.1,1.2-0.4c0.2-0.2,0.4-0.5,0.5-0.7c0.4-0.8,0.8-1.6,1.3-2.4
		c0.8-1.4,1.5-2.8,2.4-4.1c2.7-3.7,5.8-7.1,9.1-10.2c0.1-0.1,0.3-0.2,0.4-0.3c1.6,1.3,3.2,2.5,4.8,3.8c-0.4,0.9-0.9,1.9-1.3,2.9
		c-2.3,5.3-3.6,10.9-4.7,16.5c-0.4,2.2-0.6,4.4-0.5,6.6c0,0.7,0.2,1.5,0.4,2.2c0.1,0.5,0.6,0.7,1,0.7c0.5,0,0.9-0.3,1-0.8
		c0.1-0.5,0.2-0.9,0.2-1.4c0.1-3.2,0.4-6.3,1.2-9.4c1.3-5.1,2.7-10.2,4.8-15.1c0.2-0.4,0.3-0.7,0.5-1c1.6,0.5,3.1,1,4.6,1.4
		c0,0.5-0.1,0.9-0.1,1.3c-0.1,1.4-0.3,2.8-0.3,4.1c-0.1,3.4,0.4,6.7,1.1,10c1,4.8,2.5,9.4,4,14c0.8,2.2,1.6,4.4,2.9,6.3
		c0.1,0.2,0.3,0.5,0.5,0.7c0.3,0.3,0.7,0.4,1.1,0.2c0.4-0.2,0.7-0.6,0.6-1.1c0-0.3-0.2-0.7-0.3-1c-0.6-1.6-1.2-3.2-1.8-4.8
		c-1.2-3.2-2.2-6.4-2.8-9.8c-0.8-4.7-1.7-9.4-1.5-14.2c0-1.7,0.2-3.4,0.5-5.1c0.4,0,0.7,0,1.1,0c2.7,0.2,5.4,0.3,8.1,0.5
		c1.3,0.1,2.7,0.2,4,0.4c2.1,0.4,3.6,1.6,4.4,3.6c1,2.2,2,4.3,3,6.5c2.9,6.2,6.9,11.5,12.2,15.9c1,0.8,2.1,1.7,3.1,2.6
		c2.2,1.9,4.4,3.7,6.9,5.2c2,1.2,3.3,3,4,5.2c0.6,1.9,0.8,3.9,0.9,5.9c0.1,3.3,0.3,6.5,0.8,9.8c0.6,3.3,1.6,6.5,2.9,9.6
		c1.2,3,1.6,6.1,1.5,9.3c0,1.4-0.6,2.3-1.7,3.2c-1.7,1.3-3.4,2.6-5.1,4c-1.7,1.4-3,3.1-3.5,5.3c-0.4,1.6-0.2,3,0.8,4.3
		c2.2,2.9,5.2,4.3,8.8,4.6c2.8,0.2,5.2-0.8,7.5-2.3c0.8-0.6,1.6-1.2,2.4-1.8c2.1-1.5,3.5-3.6,4.1-6.1c0.7-2.6,0.9-5.3,0.7-8
		c-0.1-2.6-0.4-5.2-0.6-7.9c-0.3-3.5-0.5-7.1-0.7-10.6c0-0.2,0-0.5,0-0.7c0.2,0.2,0.3,0.4,0.4,0.6c1.3,3.6,2.7,7.2,3.9,10.8
		c0.4,1.2,0.8,2.4,0.9,3.6c0.4,2.9,0.8,5.8,1.1,8.7c0.1,1.2,0.1,2.4-0.1,3.5c-0.3,2.3-1.7,4.1-3.2,5.7c-0.6,0.7-1.3,1.3-1.9,2
		c-0.7,0.8-1.3,1.7-1.6,2.8c-0.9,2.8,0.3,5.1,3.1,6c0.4,0.1,0.8,0.3,1.3,0.3c1.3,0,2.7,0.1,4,0c3.2-0.2,5.9-1.4,8.2-3.6
		c1-1,2-1.9,2.9-2.9c0.9-0.9,1.7-1.9,2.4-3c1.7-2.2,2.5-4.7,2.6-7.4c0.1-3.1,0-6.2-0.1-9.3c-0.2-3.6-0.6-7.3-1-10.9
		c-0.5-3.7-1.1-7.4-1.6-11.1c-0.7-5.7-2.2-11.1-4.7-16.3c-0.9-1.8-1.6-3.8-2.4-5.7c-0.2-0.6-0.3-1.2-0.5-1.8
		c0.2-0.1,0.2-0.2,0.3-0.2c0.3,0,0.7,0,1,0c2.5,0.1,4.8-0.4,7.1-1.2c1.6-0.5,3.3-1.1,4.9-1.5c4.6-1.2,8.7-3.3,12.5-6.2
		c1.2-0.9,2.3-1.8,3.6-2.6c2.3-1.4,4.8-1.9,7.4-1.7c1.7,0.1,3.4,0.6,5,1.2c1.8,0.7,3.6,1.3,5.4,2c1.4,0.5,2.6,1.3,3.6,2.5
		c1.1,1.3,1.8,2.8,2.4,4.4c0.8,1.9,1.5,3.8,2.3,5.7c1.4,3.2,3,6.3,4.8,9.3c1.6,2.7,2.8,5.4,3.7,8.4c0.9,3.2,1.3,6.4,0.7,9.7
		c-0.4,2.3-1.2,4.4-2.1,6.5c-1.4,3-2.8,6.1-4.2,9.1c-0.5,1-1.1,2-1.6,3c-1.1,1.9-2.7,3.2-4.8,3.8c-1,0.3-1.9,0.6-2.9,1
		c-1.7,0.7-3.3,1.5-4.8,2.6c-2.3,1.8-3.8,4.1-4.4,6.9c-0.6,3.2,1,5.7,4.1,6.6c0.2,0.1,0.5,0.1,0.7,0.2c2.6,0.5,5.3,0.5,7.9-0.1
		c2.8-0.6,5.3-2.1,7.6-3.7c1.6-1.1,3.3-2.2,4.9-3.3c0.9-0.6,1.9-1.2,2.7-1.9c2.6-2.2,4.6-4.8,6-7.9c0.4-0.8,0.7-1.7,1.1-2.5
		c1-1.9,2-3.8,3.2-5.6c2.1-3,4.3-6,6.4-9c1.6-2.2,2.8-4.5,3.8-7c1-2.4,1.2-4.8,0.5-7.3c-0.2-0.9-0.5-1.8-0.8-2.7
		c-0.8-2.8-1.5-5.6-1.8-8.6c-0.3-4.2,0.6-8.1,2.5-11.8c0.2-0.3,0.4-0.7,0.6-1c0.2,0.1,0.2,0.1,0.3,0.1c0.2,0.3,0.5,0.6,0.7,1
		c1.7,2.6,3.7,5.1,5.7,7.4c2.4,2.8,4.8,5.7,7.2,8.5c1.6,1.9,2.1,4.2,1.7,6.6c-0.5,3.5-0.9,6.9-1.4,10.4c-0.3,2.1-0.5,4.2-0.8,6.2
		c-0.4,2.4-1.6,4.3-3.7,5.6c-0.6,0.4-1.2,0.7-1.8,1.1c-1.7,1.1-3,2.6-4.1,4.3c-2.1,3.4-1.3,6.8,2.2,8.7c3.9,2.1,7.8,2,11.6,0
		c4.8-2.6,8.1-6.7,9.6-12c0.7-2.5,1-5.1,1.4-7.7c0.5-3.4,1-6.9,1.8-10.2c0.5-2.1,1.1-4.1,1.4-6.2c0.6-3.9,0.6-7.9,0.7-11.9
		C339.9,303.8,339.9,303.4,339.8,303z M113.6,242.5c-0.3,0.1-0.7,0.2-1.1,0.3c-3,0.6-5.9,0.4-8.8-0.3c-0.9-0.2-1.8-0.5-2.6-0.8
		c-1.3-0.5-1.8-1.6-1-2.8c0.4-0.6,1-1.1,1.6-1.5c2.1-1.2,4.3-1.6,6.7-1.8c0.5,0,1,0.1,1.1,0.6c0.2,0.5-0.1,1-0.7,1.2
		c-0.7,0.3-1.5,0.5-2.2,0.6c-1.3,0.3-2.6,0.6-3.7,1.3c-0.2,0.1-0.4,0.3-0.7,0.5c1.2,0.6,2.5,0.8,3.7,1c2,0.3,4,0.3,6,0.1
		c0.4,0,0.9-0.1,1.3,0c0.4,0,0.8,0.2,0.9,0.7C114.3,242.1,113.9,242.4,113.6,242.5z M326.1,241.4c-0.5,1.1-1.3,1.5-2.5,1.1
		c-0.5-0.2-1-0.4-1.5-0.6c-0.5-0.2-1-0.2-1.6,0c-0.6,0.2-1.2,0.3-1.8,0.4c-1.7,0.1-2.8-1.2-2.5-2.8c0.4-1.9,1.4-3.4,2.8-4.6
		c1.6-1.3,3.4-1.2,4.7,0.5c0.8,1.1,1.5,2.2,2.1,3.4c0.3,0.5,0.3,1,0.5,1.5C326.3,240.7,326.3,241.1,326.1,241.4z M324.4,210.8
		c1.4,0.4,2.5,1.3,3.4,2.6c0.5,0.7,0.5,1.5,0.4,2.3c-0.1,0.7-0.7,1.3-1.5,1.2c-1.6-0.1-2.6,0.7-3.4,1.9c-0.2,0.4-0.5,0.7-0.8,1
		c-1,0.9-2.3,0.7-3-0.5c-0.5-1-0.6-2.1-0.7-3.2c0.2-0.9,0.2-1.7,0.5-2.6C319.9,211.3,322.2,210.1,324.4,210.8z M321.8,206.1
		c0-0.5,0.2-0.8,0.7-1c0.5-0.2,0.9,0,1.1,0.4c0.2,0.4,0.4,0.8,0.5,1.3c-0.1,0.7-0.4,1.2-1,1.3c-0.6,0.1-1-0.2-1.2-0.9
		C321.9,206.8,321.8,206.5,321.8,206.1z M324.9,208c0-0.2,0-0.4,0.1-0.7c0.2-0.7,0.9-1.1,1.5-1.1c0.7,0.1,1.2,0.7,1.3,1.4
		c0.1,0.7-0.2,1.2-0.7,1.7c-0.4,0.4-0.9,0.5-1.4,0.4c-0.5-0.2-0.8-0.5-0.8-1.1C324.9,208.6,324.9,208.3,324.9,208z M324.1,230.7
		c-0.3,0.6-0.8,1-1.4,0.9c-0.7,0-1.1-0.4-1.4-1c-0.1-0.3-0.2-0.7-0.3-1.1c0.1-0.4,0.1-0.7,0.2-1c0.2-0.6,0.6-1,1.3-1.1
		c0.7,0,1.2,0.3,1.5,0.9C324.5,229.1,324.5,229.9,324.1,230.7z M319.6,232.7c-0.6,0.7-1.6,0.8-2.2,0.2c-0.7-0.7-1-1.6-0.8-2.6
		c0.2-0.8,0.6-1.1,1.4-1.1c0.9,0,1.5,0.6,1.8,1.4C320.2,231.3,320.1,232,319.6,232.7z M319.9,209.2c-0.6,0.2-1.1,0.1-1.5-0.4
		c-0.9-1-0.6-2.6,0.7-2.9c0.6-0.2,1,0,1.4,0.5c0.2,0.4,0.4,0.9,0.5,1.2C320.9,208.5,320.6,209,319.9,209.2z M318.8,211.5
		c0,0.8-0.7,1.4-1.4,1.4c-0.9,0-1.7-1-1.7-1.8c0-0.7,0.7-1.4,1.4-1.4C318,209.7,318.8,210.6,318.8,211.5z M315.8,260.3
		c0.5,0.1,0.9,0,1.4,0.1c0.6,0.1,0.9,0.5,0.9,1c0,0.6-0.4,0.9-1.1,1c-0.9,0-1.9,0-3.2,0c-3.3-0.2-6.9,0.5-10.4,1.7
		c-2.2,0.7-4.2,1.9-6,3.5c-0.2,0.2-0.4,0.4-0.6,0.5c-0.2,0.1-0.6,0.2-0.7,0.1c-0.2-0.2-0.4-0.6-0.3-0.8c0.2-0.5,0.4-1,0.8-1.4
		c0.9-0.9,1.9-1.7,2.9-2.4c2.2-1.5,4.7-2.2,7.3-2.8C309.8,260.1,312.7,260,315.8,260.3z M297.1,271.7c0.3-0.3,0.7-0.5,1-0.6
		c2.9-1.4,5.9-2.1,9-2.4c0.6-0.1,1.3-0.1,2-0.1c4.5,0.1,8.6,1.3,12.2,4c0.5,0.3,0.9,0.7,1.4,1c0.6,0.5,0.8,1,0.5,1.5
		c-0.3,0.5-0.9,0.7-1.6,0.3c-0.8-0.4-1.7-0.9-2.5-1.4c-3.8-2.3-7.9-3.1-12.3-2.7c-2.4,0.2-4.8,0.6-7.2,1.1c-0.5,0.1-1,0.2-1.5,0.3
		c-0.3,0-0.6,0-0.9-0.1C296.8,272.4,296.7,272,297.1,271.7z M324.9,231.3c0.3-0.7,0.7-1.2,1.4-1.5c1.1-0.5,2.2,0.2,2.2,1.4
		c0,1-1,2.1-2,2.2C325.3,233.5,324.5,232.4,324.9,231.3z M330.6,235.7c-0.5,0.9-1.4,1.2-2.2,1.4c-1.2,0-1.9-1.3-1.4-2.3
		c0.5-0.9,1.2-1.3,2.2-1.4C330.5,233.4,331.3,234.6,330.6,235.7z M326.7,105.5c0.4,0.3,0.6,0.7,0.9,1.1c0.2,0.4,0.4,0.8,0.6,1.3
		c0.4-0.5,0.8-0.9,1.2-1.3c0.8-0.7,1.5-0.9,2.1-0.5c0.6,0.4,0.7,1.1,0.4,2.1c-0.6,1.5-1.5,2.8-2.5,4c-0.7,0.9-1.7,0.8-2.5,0
		c-0.3-0.3-0.6-0.7-0.8-1.1c-0.6-1.1-1-2.4-1.1-3.7c0-0.5,0-1.1,0.2-1.6C325.4,105.2,326,105,326.7,105.5z M301.9,74.3
		c-0.3,1.1-1,1.7-2.1,1.6c-1.6-0.1-3.1-0.4-4.4-1.3c-0.2-0.1-0.4-0.3-0.6-0.5c-0.5-0.4-0.7-0.9-0.6-1.5c0.2-0.6,0.7-0.9,1.2-1
		c0.5-0.1,1.1,0,1.6,0c0.3,0,0.5,0.1,0.8,0.2c0.1-0.8,0.1-1.4,0.2-2c0.1-0.4,0.3-0.8,0.5-1.2c0.5-0.7,1.5-0.8,2.1-0.2
		c0.2,0.2,0.4,0.4,0.5,0.6C302,70.7,302.4,72.4,301.9,74.3z M317.5,86.5c-1.4-0.4-2.8-0.8-4.2-1.1c-0.2-0.1-0.5,0-0.7,0.1
		c-1.6,0.6-3.1,0.4-4.4-0.6c-0.8-0.6-1.4-1.2-2.1-1.8c-0.7,0.1-1.3,0.2-1.9,0.1c-1.1-0.1-1.8-0.9-1.8-2c0-1.2,0.8-1.9,2-1.8
		c0.3,0,0.5,0.1,0.8,0.2c0.2-0.3,0.3-0.6,0.5-0.9c0.2-0.3,0.4-0.5,0.6-0.8c-0.2-0.4-0.4-0.8-0.5-1.2c-0.3-0.9,0-1.7,0.7-2.4
		c0.6-0.5,1.4-0.7,2.2-0.4c0.9,0.4,1.3,1,1.3,2c0,0.5-0.1,0.9-0.1,1.4c3.6,1.9,4.6,3.4,4.1,6.8c0.6,0.1,1.2,0.3,1.8,0.4
		c0.9,0.2,1.9,0.3,2.7,0.6c2.5,0.8,4,2.6,4.3,5.2c0.2,1.7,0.4,3.4,0.6,5.1c0.1,0.6,0.2,1.1,0.4,1.7c0.2,0.7,0.4,1.3,1,1.7
		c0.1,0.1,0.3,0.2,0.3,0.4c0.1,0.2,0.1,0.6,0,0.7c-0.1,0.1-0.5,0.2-0.7,0.1c-0.8-0.4-1.4-1-1.7-1.8c-0.4-1.2-0.8-2.4-1-3.6
		c-0.2-1.2-0.3-2.4-0.4-3.6C321,88.6,319.9,87.2,317.5,86.5z M319.1,128c0.5-1.5,1.4-2.5,2.9-3c1-0.4,2-0.2,2.8,0.6
		c0.7,0.7,1.2,1.5,1.8,2.4c1-1,2.2-1.6,3.7-1.9c0.3-0.1,0.7-0.1,1-0.1c0.4,0,0.6,0.2,0.7,0.6c0.1,0.4-0.1,0.7-0.4,0.8
		c-0.4,0.2-0.8,0.3-1.1,0.4c-1.3,0.4-2.2,1.3-3,2.6c0.7,0.2,1.2,0.3,1.8,0.4c0.5,0.1,1,0.1,1.5,0.3c0.4,0.1,0.7,0.2,1,0.4
		c0.6,0.5,0.5,1.3-0.3,1.5c-0.5,0.2-1.1,0.2-1.6,0.2c-1.4-0.1-2.8-0.2-4.2-0.4c-1.2-0.2-2.4-0.4-3.6-0.6c-0.3,0-0.6-0.1-0.9-0.2
		C319.5,131.5,318.6,129.8,319.1,128z M316.3,138c0.4-1.5,1.3-2.6,2.7-3.1c3.3-1.3,6.2,0.2,7.3,2.7c0.1,0.1,0.1,0.2,0.3,0.4
		c1-0.9,2.2-1.4,3.4-1.7c0.2-0.1,0.5-0.1,0.7-0.1c0.3,0.1,0.6,0.3,0.7,0.5c0.2,0.3,0,0.7-0.3,0.9c-0.5,0.3-1,0.5-1.5,0.7
		c-0.8,0.4-1.6,0.8-2.1,1.7c0.5,0.2,1,0.3,1.5,0.5c0.5,0.2,1.1,0.3,1.6,0.6c0.6,0.3,0.8,0.8,0.7,1.2c-0.1,0.6-0.6,0.9-1.1,0.9
		c-0.9,0-1.8,0-2.6-0.1c-3-0.5-6-1.1-8.9-1.6c-0.2,0-0.4-0.1-0.6-0.2C316.4,141,315.9,139.6,316.3,138z M314.8,150.6
		c0.6-0.3,1.2-0.5,1.8-0.4c1.3,0,2.5,0.2,3.8,0.3c1.5,0.1,2.9,0.3,4.4,0.4c0.8,0,1.6-0.1,2.4-0.3c1-0.3,1.1-0.8,0.5-1.6
		c-0.7-0.8-1.5-1.4-2.5-1.7c-1.8-0.6-3.6-0.8-5.4-1c-1.1-0.1-2.2-0.3-3.3-0.5c-0.2,0-0.5-0.1-0.6-0.3c-0.1-0.1-0.2-0.4-0.2-0.6
		c0-0.1,0.2-0.3,0.4-0.4c0.2-0.1,0.4-0.1,0.6-0.1c3.1,0.2,6.2,0.6,9.1,1.5c1,0.3,1.9,0.8,2.8,1.4c2.6,1.8,2.3,4.8-0.5,6.3
		c-1,0.5-2,0.7-4.6,0.7c-2.2,0-4.8-0.4-7.4-1.3c-0.5-0.2-1.1-0.4-1.5-0.8C313.9,151.8,314,151,314.8,150.6z M311.9,160.3
		c0.2-2.2,1.4-3.7,3.5-4.5c1.1-0.4,2.3-0.6,3.6-0.5c2.9,0.3,5.1,2.7,5.2,5.6c0,0.2,0,0.5,0,0.8c0.9,0.1,1.7,0.2,2.5,0.3
		c0.4,0.1,0.9,0.1,1.3,0.2c0.3,0.1,0.7,0.3,1,0.5c0.4,0.3,0.7,0.8,0.5,1.3c-0.2,0.6-0.7,0.8-1.2,0.8c-1.2,0-2.4-0.1-3.5-0.2
		c-3.4-0.3-6.7-0.7-10.1-0.9C312.4,163.7,311.7,162.3,311.9,160.3z M257.6,185.5c1.1-2.9,2.9-5.2,5.7-6.7c2.7-1.4,5.4-1.3,8,0.2
		c3.3,2,5.1,4.9,5.7,8.7c0.3,2.2,0,4.4-0.7,6.5c0,0.1-0.1,0.3-0.1,0.4c0,0,0,0.1,0,0.1c0,0,0.1,0,0.1,0c2.1-0.3,4.1,0.4,5.8,1.5
		c1.5,1,3.1,1,4.7,0.4c1.7-0.6,3.4-1.1,5.2-0.9c1.2,0.1,2.5,0.4,3.7,0.7c2.8,0.6,5.1-0.9,5.8-3.7c0.4-1.8-0.6-3.3-2.5-3.2
		c-1.4,0-2.9,0.3-4.3,0.5c-0.9,0.1-1.8,0-2.7-0.4c-1.6-0.7-2.3-2.5-1.6-4.1c0.7-1.6,2.6-2.5,4.2-1.9c0.6,0.2,0.9,0.6,0.7,1
		c-0.1,0.5-0.6,0.6-1,0.6c-0.3,0-0.6-0.1-0.8,0c-0.5,0.2-1,0.3-1.3,0.6c-0.8,0.8-0.4,2,0.8,2.2c0.7,0.1,1.5,0,2.2-0.1
		c0.8-0.1,1.5-0.3,2.3-0.4c0.6-0.1,1.1-0.1,1.7-0.1c3,0.2,4.9,2.6,4.3,5.6c-0.5,2.6-2.9,5-5.5,5.3c-0.8,0.1-1.7-0.1-2.5-0.2
		c-0.5-0.1-1-0.2-1.5-0.3c-2-0.6-3.9-0.4-5.7,0.3c-0.8,0.3-1.5,0.5-2.3,0.7c-1.3,0.3-2.6,0.1-3.8-0.4c-0.6-0.3-1.3-0.6-1.9-1
		c-1.1-0.6-2.3-0.9-3.6-0.9c-1,0-1.7,0.3-2.5,1.1c-2.8,3-6.2,4.1-10.2,3c-1.7-0.5-3.1-1.4-4.2-2.7
		C256.8,194.3,255.9,190,257.6,185.5z M239.7,174.7c0.5-0.3,1-0.5,1.6-0.6c1.3-0.2,2.5-0.4,3.8-0.6c0.7-0.1,1.5-0.3,2.2-0.4
		c0.5-0.1,1-0.1,1.5-0.1c0.4,0,0.8,0.3,0.9,0.7c0,0.3-0.2,0.7-0.4,0.9c-0.4,0.3-1,0.6-1.5,0.8c-0.5,0.2-1,0.3-1.6,0.5
		c0.2,0.8,0.4,1.6,0.6,2.4c0.9,4.4,1.9,8.7,2.8,13.1c0.1,0.6,0.2,1.2,0.2,1.8c0,0.9-0.5,1.4-1.4,1.5c-1.6,0.2-2.4-0.3-2.8-1.9
		c-1.1-4.9-2.2-9.8-3.3-14.8c-0.1-0.5-0.1-0.9-0.2-1.5c-0.3,0-0.5,0.1-0.8,0.1c-0.3,0-0.7,0-1,0c-0.5-0.1-0.9-0.3-1-0.8
		C239,175.3,239.3,174.9,239.7,174.7z M224.5,179.3c0.8-0.6,1.8-1.1,2.7-1.6c0.7-0.4,1.5-0.2,2.1,0.1c0.6,0.3,1.2,0.6,1.7,1.1
		c0.9,0.9,1.9,1.7,2.7,2.7c2.6,3.2,5.1,6.4,7.6,9.7c1.1,1.4,0.8,2.5-0.7,3.4c-1.6,1-2.5,0.9-3.9-0.4c-0.7-0.6-1.2-1.3-1.9-2
		c-0.3-0.3-0.6-0.7-0.9-1c-1,0.6-1.8,1.2-2.7,1.7c0.1,0.3,0.2,0.5,0.3,0.7c0.5,1.1,0.9,2.2,1.4,3.2c0.1,0.3,0.3,0.6,0.3,0.9
		c0,0.3-0.1,0.6-0.2,0.8c-0.3,0.3-0.6,0-0.9-0.2c-0.2-0.2-0.3-0.4-0.4-0.6c-2.6-4.6-5.2-9.1-7-14.1c-0.3-0.8-0.6-1.5-0.9-2.3
		C223.5,180.6,223.7,179.9,224.5,179.3z M211.8,187.5c1.6-1.4,3.4-1.6,5.3-1c0.8,0.2,1.2,0.8,1,1.5c-0.2,1-0.6,1.4-1.6,1.3
		c-0.4,0-0.9,0-1.3,0c-1,0.1-1.4,0.6-1.5,1.6c-0.1,0.9,0.1,1.7,0.5,2.4c0.7,1.3,1.4,2.6,2.3,3.8c1.7,2.3,3.6,4.3,5.9,5.9
		c0.6,0.4,1.2,0.7,1.9,1c0.8,0.4,1.8-0.4,2-1.1c0.2-0.7,0.1-1.3-0.1-1.9c-0.6-1.4-1.4-2.7-2.5-3.8c-0.3-0.3-0.6-0.6-0.8-0.9
		c-0.4-0.6-0.3-1.1,0.2-1.6c0.1-0.1,0.3-0.3,0.5-0.4c0.7-0.5,1.1-0.5,1.6,0.2c0.6,0.7,1.2,1.5,1.8,2.2c1.5,1.8,1.9,4,1.5,6.2
		c-0.3,2.1-1.6,3.5-3.6,4.1c-1.5,0.5-3.1,0.6-4.7,0.2c-5-1.2-8.7-4-10.6-8.9c-0.5-1.3-0.8-2.7-0.7-4.3
		C208.8,191.7,209.7,189.3,211.8,187.5z M186.2,206.8c0.2-0.8,0.9-1,1.6-0.5c0.4,0.3,0.7,0.8,0.9,1.3c0.4,0.8,0.7,1.7,1.1,2.7
		c1.3-1.4,2.5-2.7,2.6-4.7c0-0.4,0-0.7,0.1-1.1c0.1-0.5,0.2-0.9,0.8-1.1c0.4-0.1,1,0.2,1.2,0.8c0.2,0.7,0.4,1.4,0.4,2
		c0,0.9-0.5,1.7-1,2.5c-0.2,0.3-0.4,0.6-0.7,1c0.6,0.1,1,0.2,1.4,0.3c1.7,0.5,2.9,1.6,3.9,3c0.3,0.5,0.3,0.9,0,1.3
		c-0.3,0.3-0.8,0.5-1.3,0.2c-0.4-0.2-0.9-0.5-1.2-0.9c-1.5-1.4-3.3-1.6-5.2-0.8c0.2,0.6,0.4,1.3,0.5,1.9c0.1,0.6,0.2,1.3,0.1,1.9
		c-0.1,0.6-0.4,1.1-1.1,1.3c-0.6,0.1-1.1-0.1-1.5-0.6c-0.4-0.5-0.7-1.1-1-1.6c-1-2.4-1.6-4.9-1.7-7.4
		C186,207.8,186.1,207.3,186.2,206.8z M180.6,208.2c0.3-0.7,1-1,1.6-0.5c0.4,0.4,0.8,0.9,1.1,1.4c0.5,1.1,0.8,2.2,1.1,3.3
		c0.5,2.1,1,4.2,1.5,6.3c0.1,0.3,0.1,0.7,0.1,1c0,0.8-0.4,1.3-1,1.5c-0.6,0.2-1.2-0.1-1.6-0.7c-0.4-0.8-0.9-1.5-1.1-2.4
		c-0.7-2.7-1.3-5.5-1.9-8.3c0-0.2,0-0.3,0-0.7C180.4,209,180.5,208.6,180.6,208.2z M178.5,214.3c0.4,0.9,0.9,1.8,1.2,2.8
		c0.5,1.4,1,2.8,1.4,4.2c0.2,0.5,0.2,1,0.4,1.7c-0.1,0.3-0.2,0.8-0.5,1.1c-0.5,0.7-1.4,0.8-2,0.2c-0.3-0.3-0.6-0.7-0.8-1.1
		c-1.2-2.3-2.2-4.6-2.6-7.2c-0.1-0.6-0.1-1.1-0.1-1.7c0-0.6,0.3-1.1,0.8-1.3c0.6-0.2,1.1,0,1.5,0.4
		C178.1,213.6,178.3,213.9,178.5,214.3z M175.5,208.8c1,0,1.7,0.7,1.7,1.6c0,0.9-0.7,1.6-1.6,1.6c-0.9,0-1.8-0.8-1.8-1.6
		C173.7,209.6,174.5,208.8,175.5,208.8z M159.3,221.1c0.5-0.3,0.9-0.1,1.2,0.2c0.2,0.2,0.4,0.5,0.6,0.8c0.2,0.3,0.4,0.5,0.6,0.9
		c1.3-3.8,3.2-4.3,5.8-3c0-0.3,0.1-0.6,0.1-0.9c0.1-0.8,0.4-1.6,0.9-2.3c1-1.3,2.6-1.6,4-0.7c0.4,0.3,0.8,0.6,1.1,1
		c1.5,1.9,2.5,4.1,3.2,6.5c0.1,0.4,0.1,0.9-0.1,1.4c-0.2,0.7-0.9,1-1.6,0.5c-0.5-0.3-0.9-0.8-1.1-1.2c-0.5-0.8-0.8-1.7-1.2-2.6
		c-0.4-0.8-0.8-1.6-1.3-2.4c-0.2-0.4-0.6-0.7-0.9-1c-0.7,0.3-0.8,0.8-0.7,1.3c0.1,0.8,0.2,1.5,0.4,2.3c0.3,1.1,0.7,2.2,1,3.3
		c0.1,0.5,0.2,1,0.2,1.5c-0.1,0.9-0.9,1.3-1.7,0.8c-0.5-0.3-1-0.8-1.3-1.3c-0.5-0.7-0.9-1.4-1.4-2.1c-0.4-0.5-0.8-0.9-1.3-1.2
		c-0.9-0.6-1.6-0.2-1.8,0.8c-0.2,1-0.1,1.9,0.3,2.9c0.4,0.9,0.7,1.8,1,2.8c0.2,0.8,0,1.4-0.5,1.7c-0.5,0.3-1.3,0.2-1.8-0.3
		c-0.3-0.3-0.6-0.7-0.8-1.1c-1-2-2-4.1-3-6.1c-0.1-0.3-0.2-0.6-0.3-1C158.7,221.8,158.9,221.4,159.3,221.1z M140.3,207.1
		c0.8-1.9,1.6-3.9,2.5-5.7c0.6-1.2,1.5-1.5,2.7-0.9c1,0.4,1.8,1.1,2.5,1.9c0.6,0.7,0.6,1.2,0.2,1.6c-0.4,0.5-1,0.5-1.7,0
		c-0.3-0.2-0.6-0.5-0.9-0.7c-0.3-0.3-0.7-0.6-1.1-0.9c-0.3,0.5-0.5,0.9-0.6,1.3c-0.7,1.5-1.3,2.9-2,4.4c-0.1,0.2-0.2,0.5-0.4,0.7
		c-0.2,0.2-0.5,0.3-0.8,0.3c-0.2,0-0.4-0.4-0.5-0.6C140.1,208,140.1,207.5,140.3,207.1z M132.4,215.7c0.7-0.2,1.3,0,1.8,0.7
		c0.3,0.5,0.6,1.1,0.9,1.8c0.4-0.4,0.7-0.8,1.1-1.2c0.8-0.7,1.5-0.8,2.1-0.4c0.6,0.4,0.7,1.1,0.2,2.1c-0.7,1.3-1.6,2.5-2.7,3.5
		c-0.8,0.8-1.9,0.7-2.6-0.2c-1.1-1.4-1.7-3-1.8-4.8C131.4,216.5,131.8,215.9,132.4,215.7z M125.9,235c-0.7,0-1.5-0.2-2.2-0.4
		c-1.8-0.5-3.5-1.4-4.9-2.7c-0.5-0.5-1-1-1.4-1.6c-0.6-0.8-0.7-1.8-0.1-2.6c0.6-0.9,1.5-1.2,2.6-1c1.3,0.2,2.4,0.8,3.5,1.5
		c0.3,0.2,0.5,0.4,0.9,0.7c0.1-1.2,0.2-2.3,0.4-3.3c0.1-0.7,0.4-1.4,0.7-2c0.8-1.4,2.4-1.4,3.3,0c0.6,0.9,0.7,1.9,0.8,2.9
		c0.1,2.2-0.2,4.4-0.7,6.5C128.3,234.4,127.3,235.1,125.9,235z M143.4,243.1c0,0.5-0.1,0.9-0.3,1.4c-0.9,2.6-1.9,5.3-2.8,7.9
		c-0.2,0.7-0.5,1.3-0.9,1.9c-0.5,0.7-1,1.4-1.7,1.8c-1.3,1-2.8,0.9-4.2,0c-0.6-0.4-1.2-0.9-1.6-1.5c-2-2.9-3.7-6.1-4-9.7
		c-0.1-1.3-0.1-2.6-0.1-3.9c0-1.3,0.8-1.8,2-1.3c1.7,0.7,3.5,0.8,5.4,1c0.3-1,0.6-1.9,0.9-3c-0.6,0-1.1,0-1.6,0
		c-0.5,0-1.1-0.1-1.6-0.3c-0.2-0.1-0.5-0.4-0.5-0.7c0-0.2,0.3-0.5,0.5-0.6c0.9-0.2,1.8-0.3,2.7-0.4c0.3,0,0.7,0,1.1-0.1
		c0.3-0.9,0.6-1.9,1-2.9c-0.6,0-1-0.1-1.4-0.1c-0.5-0.1-1-0.2-1.5-0.4c-0.2-0.1-0.4-0.4-0.4-0.7c0-0.2,0.2-0.5,0.4-0.6
		c0.5-0.2,1-0.3,1.6-0.3c0.7-0.1,1.3,0,2.1,0c0.5-1.1,1-2.3,1.5-3.5c-0.8-0.2-1.5-0.4-2.2-0.5c-0.5-0.1-1-0.2-1.1-0.8
		c-0.1-0.4,0.3-0.8,1.2-0.9c0.7-0.1,1.4,0,2.1,0c0.4,0,0.7,0.1,1.1,0.2c0.7-1.2,1.5-2.4,2.2-3.7c-0.7-0.2-1.4-0.3-2-0.4
		c-0.8-0.2-1.2-0.6-1.2-1.1c0-0.5,0.6-1,1.4-1c0.9,0,1.7,0.1,2.6,0.2c0.3,0,0.5,0.1,0.8,0.2c0.8-0.9,1.6-1.9,2.4-2.8
		c-0.9-1.5-1.4-3.1-1.4-4.8c0-1,0-2,0.3-3c0.4-1.4,1.5-1.6,2.5-0.5c0.4,0.4,0.7,1,1.1,1.4c0.3,0.5,0.7,0.9,1.1,1.3
		c0.5,0.6,1.1,0.8,1.8,0.6c0.5-0.1,1.1-0.2,1.6-0.3c1.3-0.2,2.5,0,3.6,0.6c1.1,0.6,1.3,1.6,0.3,2.4c-1.3,1-2.5,2-3.8,3
		c-0.6,0.5-1.4,0.8-2.1,1.1c-1.1,0.5-2.2,0.4-3.2-0.3c-0.2-0.1-0.4-0.2-0.7-0.4c-0.6,0.8-1.2,1.5-1.8,2.3c0.7,0.6,1.3,1.1,1.9,1.6
		c0.4,0.3,0.7,0.8,0.9,1.2c0.1,0.3,0.1,0.7-0.1,0.9c-0.2,0.4-0.6,0.5-1,0.3c-0.5-0.2-1-0.5-1.5-0.8c-0.6-0.4-1.1-1-2-1.2
		c-0.7,1.2-1.5,2.3-2.2,3.5c0.7,0.3,1.2,0.6,1.7,0.9c0.7,0.4,1.3,0.9,1.9,1.4c0.5,0.4,0.6,1,0.3,1.3c-0.3,0.4-0.7,0.5-1.3,0.2
		c-0.7-0.3-1.3-0.7-2-1c-0.5-0.3-1.1-0.5-1.7-0.9c-0.5,1.1-0.9,2.1-1.4,3.1c1.2,0.5,2.3,1,3.5,1.5c0.4,0.2,0.8,0.4,1.1,0.7
		c0.2,0.2,0.3,0.6,0.2,0.9c-0.1,0.4-0.5,0.6-0.9,0.6c-0.4,0-0.8-0.2-1.2-0.3c-1.2-0.4-2.3-0.7-3.6-1.2c-0.3,0.9-0.6,1.7-0.9,2.6
		c1.2,0.3,2.3,0.5,3.4,0.7c0.3,0.1,0.7,0.2,0.9,0.4c0.2,0.2,0.4,0.6,0.3,0.8c-0.1,0.3-0.4,0.6-0.7,0.6c-0.4,0.1-0.9,0-1.4-0.1
		c-1.1-0.2-2.1-0.4-3.3-0.3c-0.3,1-0.7,1.9-1.1,3c0.7,0,1.4,0,2,0c0.9,0,1.8,0,2.6,0C142.8,240.9,143.5,241.6,143.4,243.1z
		 M154.5,259.7c-0.8,2.6-2.5,3.5-5,2.3c-2-0.9-3.7-2.2-4.8-4.1c-0.4-0.7-0.7-1.4-0.6-2.2c0.1-1.7,1.4-2.7,3.1-2.3
		c0.9,0.2,1.6,0.7,2.3,1.3c0.4,0.3,0.7,0.7,1.2,1.1c0.1-0.7,0.2-1.3,0.4-1.9c0.3-0.7,0.6-1.5,1-2c0.9-1.1,2.5-0.9,3,0.5
		c0.2,0.7,0.4,1.4,0.3,2.2C155.2,256.3,155,258,154.5,259.7z M184,294.7c-1-0.7-1.7-1.5-2.1-2.6c-0.3-0.9-0.4-1.8,0.1-2.6
		c1-1.7,2.4-2.7,4.4-2.8c1,0,1.9,0.3,2.7,0.8c0.4,0.2,0.7,0.5,0.5,1c-0.2,0.4-0.6,0.4-0.9,0.3c-0.5-0.1-0.9-0.3-1.4-0.4
		c-1.3-0.2-2.3,0.1-3.1,1.1c-0.5,0.7-0.5,1.1,0.2,1.6c0.5,0.4,1.1,0.8,1.8,1c1.4,0.5,2.9,0.9,4.4,1.2c1.4,0.4,2.8,0.8,4,1.6
		c1.4,0.9,2.3,2.2,2.6,3.8c0.8,3.9-2.5,6.1-5.2,5.4c-0.6-0.2-1.2-0.3-1.9-0.5c-0.3-0.1-0.6-0.3-0.9-0.5c-0.3-0.2-0.5-0.5-0.3-0.9
		c0.2-0.4,0.5-0.4,0.9-0.3c0.5,0.2,0.9,0.4,1.4,0.5c0.6,0.1,1.3,0.2,1.9,0.2c0.9-0.1,1.6-0.6,1.9-1.5c0.3-0.9,0-1.8-0.7-2.4
		c-0.5-0.4-1.1-0.8-1.7-1c-1.2-0.4-2.5-0.7-3.8-1C187,296.4,185.4,295.7,184,294.7z M205.7,289.1c-1.8-2.9-3.6-5.9-5.4-8.8
		c-0.4-0.7-0.9-1.3-1.3-1.9c-0.1-0.2-0.3-0.4-0.3-0.6c0-0.2,0.1-0.5,0.3-0.7c0.1-0.1,0.5,0,0.6,0.1c0.2,0.1,0.3,0.3,0.5,0.5
		c3.1,4.1,5.9,8.3,8.2,13c0.3,0.5,0.5,1.1,0.7,1.7c0.3,1.3-0.3,2.3-1.6,2.4c-0.6,0.1-1.2,0-1.8-0.3c-1-0.4-2-0.9-2.8-1.6
		c-2.3-1.8-4.5-3.7-6.8-5.6c-0.2-0.2-0.4-0.3-0.7-0.4c0.2,0.3,0.4,0.6,0.5,0.9c1.5,2.2,3,4.4,4.4,6.7c0.4,0.7,0.8,1.4,1.1,2.1
		c0.1,0.3,0.2,0.6-0.1,0.8c-0.3,0.2-0.6-0.1-0.8-0.3c-0.4-0.5-0.7-1.1-1.1-1.6c-2.4-3.5-4.9-6.9-7.3-10.4c-0.3-0.4-0.5-0.7-0.7-1.1
		c-0.7-1.3,0-2.6,1.5-2.5c0.7,0,1.6,0.3,2.2,0.6c1.1,0.6,2.2,1.4,3.2,2.2c2.5,1.9,4.9,3.9,7.3,5.9c0.1,0.1,0.3,0.2,0.4,0.3
		c0.1,0,0.1-0.1,0.2-0.1C206.1,289.9,206,289.5,205.7,289.1z M193.5,330.1c0,0.4-0.1,0.8-0.6,0.8c-0.5,0.1-0.7-0.4-0.8-0.8
		c-0.1-0.4-0.1-0.8-0.2-1.2c-0.1-0.9-0.1-1.8-0.1-2.7c0-0.3,0-0.6,0.1-0.8c0.1-0.2,0.4-0.5,0.6-0.5c0.2,0,0.6,0.2,0.7,0.4
		c0.2,0.4,0.2,0.8,0.3,1.3c2.1,0,4.2,0,6.3,0c0.5,0,1.1,0.1,1.6,0.2c0.5,0.1,0.8,0.4,0.8,0.9c0,0.5-0.3,0.9-0.7,1
		c-0.7,0.2-1.4,0.3-2.1,0.3c-1.9,0-3.8,0-5.9,0C193.5,329.4,193.5,329.7,193.5,330.1z M188.5,308.8c0-0.5,0.2-0.8,0.6-0.9
		c0.5-0.2,1.1-0.3,1.7-0.3c2.2-0.1,4.4-0.1,6.6-0.1c0.7,0,1.4-0.1,2.1-0.1c0.9,0,1.4,0.3,1.5,0.8c0.1,0.5-0.4,1-1.3,1.2
		c-1,0.1-1.9,0.2-2.9,0.3c-0.5,0.1-0.9,0.1-1.5,0.2c0.2,1.1,0.3,2.1,0.5,3.2c1.3-0.2,2.5-0.3,3.6-0.4c0.4,0,0.9,0,1.3,0
		c0.5,0,0.8,0.3,1,0.7c0.1,0.4-0.1,0.9-0.7,1.1c-0.8,0.3-1.5,0.5-2.3,0.6c-2.5,0.1-5,0.2-7.5,0.2c-0.3,0-0.6,0-0.8-0.1
		c-0.2-0.1-0.5-0.4-0.6-0.6c-0.1-0.4,0.1-0.7,0.5-0.8c0.3-0.1,0.7-0.2,1.1-0.3c1-0.1,2-0.2,3.1-0.3c-0.2-1.1-0.4-2.1-0.5-3.2
		c-1.2,0-2.4-0.1-3.5-0.1c-0.4,0-0.8-0.1-1.2-0.2C188.8,309.5,188.5,309.2,188.5,308.8z M190.4,321.9c-0.8-0.6-1-1.5-0.7-2.3
		c0.4-0.8,1.5-1.4,2.3-1.3c0.1,0,0.4,0.2,0.4,0.3c0,0.2-0.1,0.4-0.2,0.5c-0.4,0.3-0.8,0.6-1.2,0.9c0.5,0.6,1.1,0.7,1.6,0.7
		c1.9,0.2,3.8,0.3,5.6-0.2c0.4-0.1,0.8-0.3,1.2-0.5c0.4-0.3,0.5-0.6,0.1-0.9c-0.3-0.3-0.7-0.5-1-0.8c-0.3-0.2-0.7-0.4-1-0.7
		c-0.1-0.1-0.1-0.4-0.1-0.6c0-0.1,0.3-0.2,0.5-0.2c1,0,2.9,1.5,3.2,2.5c0.2,0.7,0,1.3-0.4,1.8c-0.5,0.7-1.1,1-1.9,1.3
		c-2.4,0.8-4.8,0.8-7.2,0.2C191.3,322.5,190.8,322.2,190.4,321.9z M193.7,357.4c-0.8,0-1.5-0.1-2.3-0.2c-0.4-0.1-0.8-0.2-0.7-0.7
		c0.1-0.5,0.5-0.4,0.8-0.4c0.8,0,1.5,0,2.3,0c0.2-0.8-0.2-1.2-0.7-1.4c-0.8-0.2-1.6-0.4-2.4-0.5c-0.9-0.2-1.7-0.2-2.6-0.4
		c-0.5-0.1-0.9-0.3-1.3-0.5c-0.8-0.4-1.3-1.1-1.2-2c0.1-1,0.6-1.6,1.5-2c0.4-0.1,0.8-0.3,1.2-0.3c0.5,0,0.9,0.1,1.3,0.3
		c0.2,0.1,0.3,0.4,0.3,0.6c0,0.2-0.3,0.3-0.5,0.3c-0.2,0.1-0.4,0-0.6,0c-0.4,0-0.8,0.1-1.1,0.7c0.7,0.1,1.3,0.2,1.9,0.3
		c1.7,0.2,3.2,0.6,4.6,1.7c0.6,0.4,1.1,0.9,1.3,1.6C196.1,356,195.2,357.3,193.7,357.4z M200.2,351.5c-1.1,0.5-2.2,0.5-3.4,0.2
		c-1.8-0.3-3.4-1-4.6-2.3c-0.6-0.6-1.1-1.3-1.4-2.1c-0.5-1.1-0.3-2.1,0.6-3c0.4-0.4,0.9-0.7,1.6-0.4c0.5,0.2,0.6,0.5,0.3,0.9
		c-0.9,1.2-0.8,1.6,0.2,2.6c1.4,1.3,3,2.3,5,2.5c0.6,0,1.1,0,1.7-0.4c-0.4-0.5-0.7-0.9-1-1.4c-0.2-0.3-0.7-0.7-0.3-1.1
		c0.4-0.5,0.8,0.1,1.1,0.3c0.4,0.3,0.8,0.7,1.1,1.2C201.9,349.8,201.5,351,200.2,351.5z M202.8,344.5c-0.1,0.5-0.5,0.6-0.9,0.6
		c-0.3,0-0.6,0-0.9-0.1c-2.1-0.5-4.1-1-6.2-1.5c-0.4-0.1-0.8-0.3-1.2-0.5c-1.1-0.6-1.6-1.6-1.3-2.7c0.3-1.1,1.5-1.8,2.7-1.7
		c1.4,0.2,2.5,0.8,3.3,2.1c0.1,0.1,0.1,0.2,0.1,0.3c0.1,0.1,0.1,0.2,0.2,0.3c0.8-0.8,1.8-1.3,2.8-1.5c0.2-0.1,0.4-0.2,0.6-0.1
		c0.2,0.1,0.5,0.3,0.6,0.5c0.1,0.2,0,0.5-0.2,0.6c-0.3,0.2-0.7,0.4-1.1,0.6c-0.6,0.3-1.2,0.6-1.6,1.3c0.5,0.2,1,0.3,1.5,0.5
		c0.3,0.1,0.7,0.2,1,0.4C202.8,343.7,203,344.1,202.8,344.5z M202.3,333.6c-0.5,0.1-0.9,0.1-1.4,0.2c0,0.9,0,1.7,0,2.5
		c0.6,0.1,1.1,0.3,1.6,0.4c0.4,0.1,0.7,0.3,0.7,0.8c-0.1,0.4-0.5,0.6-0.9,0.5c-1.6-0.3-3.2-0.5-4.8-0.9c-0.8-0.2-1.6-0.5-2.4-0.9
		c-0.5-0.2-0.9-0.6-1.3-1c-0.8-1-0.7-2.3,0.4-3c0.5-0.3,1.2-0.6,1.8-0.7c2.1-0.3,4.2-0.2,6.2,0.1c0.9,0.1,1.3,0.5,1.3,1
		C203.6,333.2,203.2,333.4,202.3,333.6z M216.9,309.8c-0.3,0.4-0.6,0.7-1,1.1c0.5,0.1,0.9,0.3,1.3,0.4c2,0.7,2.4,2.3,1.2,4
		c-0.1,0.2-0.2,0.3-0.4,0.5c0.3,0.2,0.6,0.4,0.8,0.6c0.6,0.6,1.3,1.1,1.8,1.7c0.9,1.2,0.8,2.4,0,3.7c-0.1,0.1-0.2,0.3-0.3,0.5
		c0.2,0.2,0.3,0.3,0.5,0.5c2.4,1.7,2.2,4.9-0.1,6.3c0.3,0.2,0.5,0.4,0.8,0.6c0.4,0.3,0.8,0.6,1.2,1c0.8,0.9,0.9,1.7,0.1,3.1
		c0.2,0.2,0.5,0.4,0.6,0.6c0.4,0.5,0.9,0.9,1.2,1.5c0.7,1.3,0.4,2.8-0.8,3.7c-0.6,0.5-1.4,0.8-2.2,1.3c0.4,0.2,0.8,0.5,1.2,0.7
		c0.8,0.5,1.4,1.1,1.3,2.1c-0.1,1-1,1.4-1.8,1.7c-0.5,0.2-1,0.2-1.7,0.4c0.4,0.2,0.7,0.4,0.9,0.5c0.7,0.5,1.5,0.8,2.1,1.4
		c1.2,1,1.1,2.7-0.3,3.5c-0.5,0.3-1.2,0.5-1.8,0.6c-0.7,0.1-1.5,0-2.4,0c0.3,0.3,0.5,0.5,0.8,0.8c0.8,0.8,1.5,1.6,2,2.7
		c1.1,2.5-0.4,4.8-2.9,5.2c-2.3,0.4-4.3-0.4-5.9-2.2c-1-1.2-1.4-2.6-0.7-4.1c0.3-0.8,0.9-1.4,1.7-1.7c0.3-0.1,0.6-0.2,0.9-0.1
		c0.5,0.1,0.7,0.5,0.3,0.9c-0.2,0.3-0.6,0.5-0.8,0.8c-0.6,0.9-0.3,1.9,0.7,2.4c1.3,0.6,2.6,0.8,4,0.5c0.7-0.1,1-0.5,0.9-1.2
		c-0.1-0.5-0.3-1.1-0.6-1.6c-1-1.4-2.1-2.5-3.7-3.2c-0.7-0.3-1-0.7-0.9-1.3c0.1-0.6,0.5-1.1,1.2-1.2c0.7-0.1,1.3,0,2,0.1
		c0.9,0.1,1.9,0.3,2.8,0.4c0.5,0.1,0.9,0,1.6,0c-0.4-0.5-0.7-0.9-1-1.1c-1.4-1.1-3-2-4.8-2.3c-0.4-0.1-0.9-0.2-1.3-0.4
		c-0.4-0.2-0.7-0.4-0.6-0.9c0.1-0.5,0.4-0.7,0.8-0.8c0.6-0.1,1.3,0,1.9,0c1.2,0,2.4,0.1,3.5,0.2c0.5,0,1-0.1,1.7-0.2
		c-0.4-0.4-0.6-0.7-0.9-0.8c-1.2-0.7-2.4-1.5-3.8-1.8c-0.9-0.2-1.7-0.7-2.3-1.4c-0.8-1-0.8-2.1-0.3-3.3c-0.6-0.1-1.2-0.1-1.7-0.3
		c-0.8-0.2-1.6-0.4-2.3-0.7c-0.5-0.2-0.9-0.5-1.2-0.9c-0.7-0.7-0.6-1.6,0.2-2.2c0.8-0.6,1.7-0.8,2.6-0.9c1.9-0.2,3.7,0.2,5.4,0.9
		c0.4,0.2,0.9,0.4,1.3,0.6c0.4,0.2,0.6,0.1,0.9-0.2c0.3-0.3,0.3-0.6,0.1-0.9c-0.7-0.9-1.4-1.6-2.6-1.5c-0.6,0.1-1.2,0-1.8-0.1
		c-2.6-0.5-3.7-1.9-3.7-4.4c-1-0.1-2.1-0.2-3.1-0.4c-0.7-0.2-1.4-0.5-2-0.9c-1.1-0.8-1-2,0.1-2.8c1.1-0.8,2.3-1,3.6-1.1
		c1.9-0.2,3.8,0.1,5.6,0.8c0.8,0.3,1.5,0.1,2.1-0.7c0.4-0.5,0.4-1.1-0.2-1.7c-0.4-0.5-0.9-0.8-1.3-1.3c-0.4-0.4-0.8-0.4-1.3-0.1
		c-2.8,1.4-5.8,2.3-8.9,2.2c-0.7,0-1.3-0.1-2-0.3c-0.3-0.1-0.6-0.2-0.9-0.4c-1.5-0.8-1.5-2.1-0.1-3.1c1.3-0.9,2.7-1.2,4.2-1.3
		c2-0.2,4-0.1,5.9,0.4c1.2,0.3,2.1-0.1,2.8-1.1c-1-1.2-2.4-1.6-3.9-1.2c-1.9,0.6-3.8,0.7-5.7,0.2c-0.8-0.2-1.6-0.6-2.2-1.2
		c-0.9-0.9-1.3-2-0.8-3.2c0.4-1.1,1.8-1.9,3.1-1.8c1.5,0.1,2.7,0.9,3.5,2.1c0.2,0.3,0.3,0.6,0.5,0.9c1.2-0.1,2.3-0.5,3.3-1.1
		c0.8-0.5,1-1.2,0.6-2.1c-0.4-0.9-1.1-1.4-1.9-1.9c-0.6-0.4-1.3-0.7-2-1c-0.4-0.2-0.9-0.4-0.6-1c0.3-0.6,0.8-0.2,1.1,0
		c0.8,0.4,1.6,0.8,2.4,1.2c0.9,0.5,1.6,1.2,2.2,2.1C218,306.8,218,308.4,216.9,309.8z M218,289.5c-0.4,1.8-1.7,2.7-3.5,2.4
		c-1.1-0.2-2.1-0.7-2.9-1.5c-0.8-0.8-1.6-1.7-2.3-2.6c-0.6-0.9-1.2-1.9-1.7-2.9c-1-2.2-2-4.4-2.9-6.7c-0.3-0.8-0.5-1.7-0.5-2.5
		c0-1.3,1.2-1.8,2.2-1.1c0.4,0.3,0.8,0.8,1.1,1.3c0.6,1.1,1.2,2.2,1.8,3.3c0.9,1.8,1.7,3.7,2.7,5.5c0.7,1.3,1.6,2.4,2.4,3.6
		c0.3,0.4,0.7,0.7,1.2,1c0.5,0.3,0.8,0.2,0.9-0.3c0.2-0.5,0.2-1,0.3-1.7c-0.2-1.2-0.4-2.5-0.8-3.7c-1-3.3-2.3-6.5-3.8-9.5
		c-0.2-0.4-0.4-0.7-0.5-1.1c0-0.2,0.1-0.5,0.2-0.6c0.1-0.1,0.4,0,0.6,0.1c0.1,0.1,0.2,0.3,0.3,0.4c2.2,4.2,4,8.5,5,13.2
		C218.1,287.2,218.3,288.3,218,289.5z M227.8,287.9c-0.5,1.5-1.9,2.2-3.5,1.7c-1-0.3-1.9-0.8-2.6-1.6c-0.7-0.8-1.5-1.7-2-2.7
		c-1.5-2.8-2.5-5.8-2.8-9c-0.1-1.2,0-2.4,0.2-3.5c0.1-1,0.7-1.9,1.5-2.5c1.1-0.8,2.6-0.7,3.4,0.3c0.2,0.2,0.3,0.6,0.2,0.8
		c-0.1,0.2-0.5,0.2-0.8,0.3c-0.2,0-0.3,0-0.5-0.1c-0.5,0-0.9,0.2-0.9,0.7c-0.1,0.5-0.1,0.9-0.1,1.4c0.7,4,1.8,7.9,3.6,11.5
		c0.4,0.8,1,1.4,1.6,2.1c0.6,0.6,1.1,0.4,1.4-0.3c0.2-0.5,0.3-1.1,0.3-1.6c-0.1-1.1-0.2-2.1-0.4-3.2c-0.2-0.9-0.3-1-1.3-1
		c-0.3,0-0.7,0-1-0.1c-0.2-0.1-0.5-0.4-0.5-0.6c0-0.2,0.3-0.6,0.5-0.6c0.8-0.3,1.6-0.3,2.4,0c0.7,0.3,1,0.8,1.1,1.5
		c0.3,1.4,0.5,2.7,0.7,4.1C228.1,286.3,228,287.1,227.8,287.9z M232.9,284.6c-1-0.4-1.9-1-2.6-1.7c-0.8-0.9-1.5-1.7-2.1-2.7
		c-1.8-2.7-3.2-5.6-3.6-8.9c-0.1-0.6-0.1-1.1-0.2-1.7c0-1.2,0.1-2.3,0.6-3.4c0.4-0.9,1-1.5,2-1.7c0.7-0.2,1.4-0.1,2,0.4
		c0.4,0.3,0.4,0.8-0.1,0.9c-1.5,0.4-1.5,1.5-1.4,2.7c0.2,1,0.3,2,0.6,3c1,3.3,2.3,6.5,4.3,9.3c0.5,0.8,1.2,1.5,2,1.9
		c0.8,0.4,1.3,0.2,1.5-0.6c0.1-0.5,0.1-1,0-1.5c-0.3-1.4-0.7-2.7-1.2-4.1c-0.3-0.7-0.4-0.8-1.2-0.7c-0.3,0-0.7,0.1-1,0.1
		c-0.2,0-0.5-0.2-0.5-0.3c-0.1-0.2,0-0.5,0.1-0.6c1-0.9,2.9-1,3.5,0.4c0.9,2,1.6,4,1.7,6.2c0,0,0,0.1,0,0.1
		C237.3,284.3,235.4,285.6,232.9,284.6z M244.6,279.9c-0.8,0.5-2.3,1.7-3.1,1.5c-0.9,0-1.7-0.4-2.2-1.1c-0.5-0.6-0.9-1.2-1.2-1.8
		c-2-3.9-3.9-7.9-5.1-12.2c-0.2-0.6-0.3-1.3-0.3-2c0-0.3,0.2-0.7,0.5-0.8c0.2-0.1,0.7,0,0.9,0.2c0.3,0.3,0.7,0.7,0.9,1.1
		c0.6,1.3,1.2,2.6,1.8,4c1.1,2.6,2.1,5.3,3.2,7.9c0.3,0.6,0.6,1.3,1,1.9c0.5,0.7,0.8,0.8,1.6,0.6c0.5-0.2,1-0.4,1.5-0.5
		c0.4-0.1,0.7-0.1,0.9,0.3C245.1,279.4,244.9,279.7,244.6,279.9z M246,272.9c-0.1,0.8-0.1,1.5-0.3,2.3c-0.1,0.4-0.3,0.8-0.4,1.2
		c-0.2,0.4-0.6,0.7-1,0.5c-0.3-0.1-0.7-0.4-0.8-0.7c-0.2-0.5-0.2-1.1-0.2-1.6c0-1.9,0-3.8,0-5.7c0-0.3,0-0.6,0-1
		c-0.3-0.1-0.6-0.3-0.9-0.4c-1.7-0.7-3.3-1.8-4.6-3c-0.5-0.5-1-1.1-1.4-1.7c-0.1-0.2-0.1-0.7,0-0.9c0.2-0.4,0.6-0.4,1-0.2
		c0.4,0.2,0.8,0.4,1.1,0.7c1.3,0.9,2.6,1.8,3.9,2.8c0.2,0.2,0.4,0.3,0.9,0.5c-0.2-1.7-0.4-3.2-0.5-4.7c-0.1-0.8-0.1-1.7-0.1-2.5
		c0-0.5,0.2-0.9,0.7-1.1c0.5-0.1,0.8,0.1,1.1,0.5c0.7,0.9,1,2,1.1,3.1C246.1,265,246.3,268.9,246,272.9z M247.1,253.1
		c-2.1-2.6-3.4-5.5-4.4-8.7c-0.4-1.3-0.7-2.7-1-4c0-0.2-0.1-0.4-0.3-0.6c0,0.2-0.1,0.4-0.1,0.6c-0.1,0.2-0.1,0.5-0.1,0.7
		c-0.6,3-1.3,6-2.4,8.9c-0.7,1.8-1.6,3.6-2.8,5.1c-1.2,1.4-2.7,2.4-4.6,2.7c-2.6,0.3-4.9-0.3-6.9-1.9c-1.4-1.1-2.6-2.4-3.7-3.8
		c-0.2-0.3-0.4-0.5-0.8-0.8c0,0.6,0.1,1.2,0.1,1.8c0.1,2.9,0.6,5.8,0.3,8.7c-0.1,1.4-0.5,2.7-0.8,4c-0.1,0.5-0.4,1.1-0.7,1.5
		c-1.1,1.7-2.7,2.1-4.5,1.2c-0.8-0.4-1.5-1-2.2-1.6c-1.7-1.7-3.1-3.7-4.2-5.8c-1.9-3.7-3.2-7.6-4.4-11.5c-1.7-5.6-3.5-11.1-5.3-16.7
		c-0.7-2.2-1.6-4.2-2.9-6.1c-0.3-0.5-0.8-0.9-1.1-1.3c-0.9,0.4-1.3,1.1-1.6,1.8c-0.6,1.4-0.9,2.9-1.1,4.4c-0.4,4.3-0.2,8.7,0.3,13
		c0.7,5.5,1.9,10.9,3,16.4c0.3,1.4,0.5,2.9,0.8,4.4c0.1,0.3,0.1,0.7,0,1c-0.2,1-1.2,1.5-2.1,1c-0.5-0.2-0.9-0.6-1.2-1
		c-1-1.5-2-2.9-2.8-4.5c-1.8-3.7-3.4-7.5-5.1-11.2c-1.4-3.1-2.9-6.1-4.7-8.9c-0.5-0.8-1.1-1.6-1.7-2.4c-0.2-0.3-0.4-0.5-0.7-0.8
		c-0.7,1.4-0.9,2.8-0.9,4.2c-0.1,3.1,0.4,6.2,0.9,9.2c0.9,5.3,2.5,10.4,4,15.5c0.9,3.2,1.8,6.4,2.2,9.7c0.2,1.7,0.4,3.3,0.1,5
		c-0.4,2.1-2,3.1-4,2.4c-1.1-0.4-2.1-1.1-2.9-1.9c-1.7-1.6-3-3.4-4.3-5.3c-0.4-0.6-0.7-1.1-1.1-1.7c-3.9-7-7.8-14-11-21.3
		c-1.8-4.1-3.4-8.2-4.6-12.5c-0.3-1.2-0.5-2.4-0.7-3.6c-0.1-0.9-0.1-1.9,0.3-2.8c0.7-1.8,2.5-2.5,4.2-1.7c0.9,0.5,1.7,1.1,2.4,1.8
		c2.1,2,3.7,4.4,5.1,7c1.9,3.6,3.7,7.2,5.5,10.8c0.7,1.5,1.4,3,2.1,4.5c0.1,0.3,0.3,0.6,0.6,0.8c0-0.2-0.1-0.5-0.1-0.7
		c-1-3.9-1.9-7.8-2.4-11.8c-0.4-3-0.8-5.9-0.3-9c0.3-2.2,1-4.2,2.6-5.8c2.3-2.3,5.5-2.6,8.1-0.7c1,0.7,1.8,1.6,2.7,2.4
		c0.2,0.2,0.4,0.4,0.7,0.8c0.1-0.8,0.1-1.5,0.2-2.1c0.2-2.9,0.8-5.7,1.9-8.4c0.7-1.8,1.9-3.4,3.3-4.8c2.1-1.9,4.5-2.2,7.1-1.1
		c1.5,0.6,2.6,1.7,3.6,2.9c2,2.4,3.5,5,4.6,7.9c1.6,4.3,2.7,8.7,3.8,13.1c1.9,7.2,3.8,14.3,5.6,21.5c0.1,0.4,0.3,0.9,0.5,1.4
		c0.6-0.5,0.7-1.1,0.7-1.7c0-1.9,0.1-3.7-0.1-5.6c-0.5-4.3-1.1-8.7-1.7-13c-0.1-0.5-0.2-1-0.4-1.5c-1.7-4.4-2.6-9-2.5-13.7
		c0.1-3.2,0.9-6.2,2.4-9c0.9-1.5,2-2.8,3.4-3.8c4.2-2.9,8.5-0.8,10.3,2.1c1.1,1.8,1.5,3.7,1.6,5.8c0.1,4.9-1.7,9.2-5.2,12.6
		c-0.6,0.6-0.7,1.1-0.4,1.8c0.8,2.2,1.5,4.5,2.7,6.5c0.6,1.1,1.4,2.1,2.1,3.2c0.3,0.4,0.7,0.7,1.1,1c0.7,0.6,1.5,0.6,2.3,0.2
		c0.7-0.4,1.3-1,1.8-1.7c1.3-1.9,2.1-4,2.4-6.2c0.5-2.7,0.8-5.5,1.1-8.2c0.3-2.6,0.4-5.2,1-7.7c0.3-1.3,0.8-2.7,1.5-3.8
		c0.3-0.5,0.6-1,1-1.4c1.4-1.5,3.4-1.4,4.8,0c0.8,0.8,1.3,1.8,1.5,2.8c0.5,1.9,0.9,3.7,1.2,5.6c0.9,4.9,1.8,9.7,3.4,14.4
		c0.6,1.6,1.2,3.2,2.3,4.6c0.4,0.6,1.1,1,1.6,1.5c0.4,0.3,0.8,0.2,1.1-0.1c0.3-0.4,0.7-0.9,0.8-1.3c0.6-2,1.2-4.1,1.6-6.1
		c1.9-9.1,0.6-17.8-3-26.3c-0.1-0.1-0.2-0.3-0.2-0.4c-1.6,0.3-3.2,0.6-4.7,0.8c-4.7,0.6-9.1-0.3-13.1-3c-1.8-1.2-3.2-2.7-4-4.7
		c-1.7-4.3,1.1-9.9,6.4-10.6c2.1-0.3,4,0,5.9,0.9c3.9,1.8,7,4.4,9.3,8c0.9,1.3,1.5,2.7,2.3,4c0.2,0.3,0.3,0.6,0.5,1
		c1.9-0.9,3.7-1.7,5.4-2.8c1.5-0.9,3-1.7,4.5-2.5c1.1-0.6,2.4-1,3.6-1.4c1.1-0.4,2.2-0.4,3.3-0.3c2.2,0.2,3.7,1.4,4.6,3.5
		c0.7,1.8,0.9,3.7,0.7,5.7c-0.4,3.4-0.9,6.8-1.4,10.2c-0.3,2.1-0.5,4.3-0.6,6.4c-0.2,2.9-0.4,5.8-0.4,8.7c0,2.1,0.3,4.2,0.5,6.3
		c0.1,0.7,0.4,1.4,0.6,2.4c0.5-0.6,0.9-1,1.2-1.4c0.8-1.4,1.6-2.9,2.2-4.4c1.8-4.4,2.9-8.9,4-13.5c0.9-3.7,1.7-7.4,2.6-11.1
		c0.4-1.7,1.1-3.4,2-4.9c0.5-0.8,1.1-1.5,1.9-2c2.3-1.5,5-1,6.6,1.2c1.1,1.5,1.5,3.1,1.8,4.9c0.4,3.2,0.2,6.3-0.1,9.5
		c-0.4,4.7-1.1,9.3-1.5,14c-0.2,2.9-0.2,5.8-0.2,8.7c0,0.9,0.3,1.9,0.5,2.8c0.3,0.9,0.8,1.1,1.5,0.5c0.9-0.7,1.7-1.6,2.3-2.5
		c2-2.8,3.2-5.9,4-9.2c1-4,1.6-8,1.7-12.1c0-2.8,0.1-5.7-0.1-8.5c-0.3-4.3-0.8-8.7-1.1-13c-0.3-4.3-0.4-8.7,0-13
		c0.3-3.2,0.6-6.4,1.3-9.5c0.5-2.1,1.1-4.2,2-6.2c0.6-1.3,1.3-2.6,2.5-3.5c0.5-0.4,1.1-0.8,1.7-1.1c1.5-0.7,3.1-0.1,3.7,1.4
		c0.3,0.7,0.4,1.5,0.4,2.3c0.1,2.1-0.4,4.1-0.9,6.1c-1,3.5-2.1,7-3,10.5c-1.4,5.4-2.5,10.8-2.9,16.4c-0.2,3.1-0.3,6.3-0.4,9.4
		c-0.1,3.5-0.1,6.9-0.3,10.4c-0.2,4.1-0.6,8.2-1.9,12.1c-1.1,3.3-2.3,6.7-4.1,9.8c-1,1.7-2.2,3.3-3.8,4.5c-1,0.8-2.1,1.3-3.4,1.3
		c-2.3,0.1-4.2-0.9-5.7-2.6c-1-1.1-1.6-2.4-2.2-3.7c-0.9-2.1-1.3-4.3-1.6-6.5c-0.5-3.5-0.6-7-0.6-10.5c0-0.8,0.1-1.6,0-2.5
		c-0.1,0.2-0.2,0.5-0.3,0.7c-1.3,4.3-2.5,8.5-4.2,12.6c-0.6,1.3-1.2,2.6-1.9,3.9c-0.6,1.1-1.5,2.1-2.7,2.7c-2,1.2-4,1.1-6-0.2
		c-1.3-0.8-2.2-2-2.9-3.3c-1.4-2.4-2.1-4.9-2.6-7.6c-0.8-4.1-0.9-8.3-0.5-12.5c0.5-4.8,1.1-9.5,1.6-14.3c0.1-1.1,0.2-2.1,0.3-3.2
		c0-0.3,0-0.7-0.1-1.1c-3.8,1.1-7.2,3.1-10.8,4.6c0.1,0.3,0.1,0.5,0.2,0.7c1.7,4.6,2.7,9.3,3,14.2c0.4,6,0,12-1.5,17.8
		c-0.5,1.9-1.1,3.7-2,5.4c-0.7,1.3-1.5,2.4-2.6,3.3c-2.3,1.9-4.9,2.1-7.6,0.8C249.1,255.3,248.1,254.3,247.1,253.1z M295.8,310.8
		c2.1-0.4,2.6-1,2.4-3.1c-0.1-0.7-0.2-1.4-0.3-2.1c-0.2-1,0.1-1.6,0.8-1.7c0.6-0.1,1.1,0.3,1.3,1.3c0.3,1.2,0.6,2.3,0.8,3.5
		c0.3,2.4-0.8,4.2-3.1,4.9c-1.5,0.4-3,0.7-4.6,0.8c-1.6,0.1-3.2,0-4.7-0.2c-0.7-0.1-1.5-0.4-2.2-0.8c-2.1-1.1-2.9-2.9-2.9-5.2
		c0-0.7,0.3-1.1,0.7-1.2c0.5-0.1,0.9,0.1,1.2,0.7c0.2,0.4,0.4,0.7,0.5,1.1c0.3,0.9,0.9,1.5,1.8,1.7c1.1,0.2,2.2,0.4,3.4,0.5
		c0.5,0.1,1.1,0,1.8,0c-0.1-1.2-0.2-2.4-0.2-3.5c0-0.6-0.1-1.2-0.1-1.8c0-0.6,0.4-1,0.9-1.1c0.5-0.1,1,0.2,1.1,0.8
		c0.3,1.4,0.6,2.9,0.8,4.4c0.1,0.3,0,0.7,0,1C295.5,310.9,295.6,310.9,295.8,310.8z M291.3,294.2c-0.1-1.9-0.4-3.8-0.6-5.7
		c-0.1-0.7-0.1-1.3-0.1-2c0-0.6,0.3-1,0.7-1c0.4,0,0.8,0.3,0.9,0.9c0.2,1,0.2,2.1,0.4,3.1c0.3,2.3,0.5,4.7,0.3,7.1
		c-0.1,1-0.4,1.9-0.7,2.8c-0.1,0.4-0.3,0.7-0.5,1.1c-1.1,1.7-3.1,2-4.6,0.6c-0.8-0.8-1.4-1.7-1.7-2.8c-0.6-2.2-1.1-4.4-1.6-6.6
		c-0.2-1-0.3-2.1-0.4-3.1c-0.1-1.4,1-2.4,2.4-2.4c0.7,0,1.2,0.4,1.4,1c0.3,0.6,0.5,1.3,0.6,2c0.4,2.5,0.8,5,1.2,7.5
		c0.1,0.9,0.4,1.8,0.9,2.5c0.5-0.3,0.7-0.8,0.9-1.2C291.2,296.7,291.3,295.5,291.3,294.2z M290.1,280c-2,2.3-3.6,2.6-6.4,1.2
		c-3.6-1.9-5.7-4.9-6.6-8.8c-0.3-1.2,0.1-2.4,1.1-3.2c1-0.8,2.1-0.9,3.3-0.4c1.6,0.7,2.7,1.8,3.7,3.2c0.2,0.3,0.4,0.7,0.7,1.1
		c0.3-0.5,0.4-0.9,0.7-1.2c0.6-0.9,1.3-1.8,1.9-2.7c0.2-0.2,0.4-0.4,0.7-0.6c1-0.7,2.1-1,3.2-0.4c1.2,0.6,1.7,1.6,1.7,2.9
		c0,0.5-0.1,1-0.2,1.5C293.2,275.2,292,277.8,290.1,280z M274.3,268.9c-0.3,0.3-0.7,0.2-1,0c-1.2-0.7-2.4-1.5-3.7-2.1
		c-3.3-1.7-6.9-2.6-10.5-2.8c-2.4-0.2-4.8-0.2-7.2-0.4c-0.9,0-1.3-0.3-1.3-0.8c-0.1-0.5,0.4-1,1.3-1.1c1.4-0.2,2.9-0.3,4.3-0.4
		c2.9,0.2,5.9,0.5,8.7,1.2c2,0.5,3.9,1.1,5.7,2.1c1.1,0.6,2.1,1.3,3.1,2.1c0.4,0.3,0.7,0.8,0.9,1.2
		C274.7,268.1,274.7,268.6,274.3,268.9z M251.1,272.4c-0.3,0.1-0.6,0.1-0.9,0.2c-0.7,0.1-1.2,0-1.4-0.5c-0.2-0.5,0.1-0.9,0.9-1.2
		c1.1-0.4,2.2-0.8,3.3-1.1c3.3-0.8,6.7-1.1,10.1-0.9c2.2,0.1,4.4,0.5,6.5,1.3c0.8,0.3,1.5,0.7,2.2,1.2c0.3,0.1,0.5,0.4,0.7,0.6
		c0.2,0.3,0.4,0.6,0.1,0.9c-0.2,0.2-0.5,0.3-0.7,0.4c-0.4-0.2-0.7-0.2-1-0.4c-4.1-1.8-8.4-2-12.8-1.5
		C255.8,271.5,253.5,272,251.1,272.4z M273.2,277.4c-1,0-1.9,0-3.1,0c-2.6-0.1-5.3,0.2-7.8,1.3c-0.6,0.3-1.2,0.4-1.8,0.6
		c-0.3,0.1-0.6,0.2-0.9,0.1c-0.3-0.1-0.6-0.3-0.7-0.5c-0.1-0.2,0-0.6,0.2-0.8c0.2-0.3,0.5-0.4,0.8-0.6c3.2-1.8,6.7-2.7,10.4-2.3
		c0.7,0.1,1.4,0.2,2.1,0.3c0.4,0.1,0.7,0.2,1,0.3c0.4,0.2,0.6,0.4,0.6,0.9C274,277.2,273.6,277.4,273.2,277.4z M281,303.7
		c-0.8,0.1-1.5-0.1-2-0.8c-0.5-0.6-0.9-1.3-1.2-2c-1.7-4.1-3-8.3-4.2-12.5c-0.1-0.3-0.1-0.5-0.2-0.8c-0.1-0.8,0.1-1.4,0.8-1.8
		c0.4-0.2,0.8-0.5,1.2-0.5c1.5-0.3,3-0.6,4.6-0.8c0.1,0,0.3,0,0.4,0c0.4,0,0.7,0.2,0.8,0.6c0.1,0.4-0.2,0.7-0.6,0.8
		c-0.9,0.3-1.8,0.6-2.9,1c0.8,2.4,1.6,4.8,2.7,7.1c0.5-0.1,1-0.2,1.4-0.3c0.4-0.1,0.8,0,0.9,0.4c0.2,0.4-0.1,0.7-0.5,0.9
		c-0.4,0.2-0.7,0.3-1.2,0.5c0.3,0.7,0.5,1.3,0.8,1.9c0.4,0.9,0.8,1.8,1.2,2.7C283.8,301.7,282.8,303.4,281,303.7z M285,353.2
		c-0.2,0.6-0.7,0.9-1.3,0.8c-0.5-0.1-1.1-0.2-1.5-0.5c-1.7-0.9-3.3-1.9-4.9-2.8c-0.3-0.2-0.7-0.4-1-0.6c-0.1,0.1-0.1,0.1-0.2,0.2
		c0.1,0.7,0.2,1.4,0.3,2.1c0.1,0.6,0.1,1.2,0.1,1.8c-0.1,1.3-1,2.1-2.2,2c-0.7-0.1-1.3-0.1-2-0.2c-0.4,0-0.7-0.1-1.2-0.2
		c0.6,0.8,1,1.6,1.5,2.3c0.4,0.6,0.7,1.1,1,1.7c0.2,0.3,0.2,0.7,0.3,1.1c0.1,0.5-0.1,0.9-0.6,1.2c-0.5,0.3-0.9,0.2-1.3-0.1
		c-0.3-0.2-0.6-0.5-0.8-0.8c-1.2-1.8-2.3-3.7-3.5-5.6c-0.1-0.1-0.2-0.3-0.2-0.5c-0.6-1.5,0.2-2.8,1.8-2.8c0.7,0,1.3,0.2,2,0.3
		c0.8,0.2,1.6,0.4,2.6,0.7c-0.1-0.7-0.2-1.2-0.3-1.7c-0.1-0.8-0.3-1.5-0.4-2.3c-0.3-1.9,1.1-3.1,2.9-2.6c0.9,0.2,1.8,0.7,2.6,1.2
		c1.9,1.1,3.7,2.4,5.5,3.6c0.2,0.1,0.3,0.2,0.5,0.4C285.1,352.2,285.3,352.7,285,353.2z M286.4,348.2c-0.8-0.1-1.7-0.4-2.4-0.7
		c-1.9-0.9-3.4-2.3-4.4-4.2c-1.3-2.5,0.1-5.1,2.9-5.5c0.6-0.1,1.2-0.1,1.8,0c2.5,0.5,4.5,1.8,6,4c0.5,0.7,0.8,1.6,0.7,2.3
		C291.1,346.8,289.1,348.5,286.4,348.2z M295.7,336.9c-0.9,1-2.2,1.3-3.6,1.4c-0.3,0-0.7-0.1-1-0.2c-2.4-0.5-4.5-1.5-6.5-2.9
		c-0.3-0.2-0.5-0.4-0.7-0.7c-0.5-0.7-0.2-1.5,0.7-1.5c0.6,0,1.1,0.1,1.7,0.3c1,0.4,2.1,0.8,3.1,1.2c0.8,0.3,1.7,0.6,2.5,0.8
		c0.4,0.1,0.9,0.1,1.4,0c0.9-0.2,1.1-0.6,0.5-1.3c-0.3-0.5-0.8-0.9-1.2-1.2c-1-0.6-2-1.2-3.1-1.6c-1-0.4-2.1-0.7-3.1-1.1
		c-1-0.4-1.4-0.9-1.1-1.6c0.2-0.6,0.8-0.9,1.8-0.6c2.7,0.6,5.2,1.6,7.4,3.3c1,0.8,1.9,1.7,2.2,3.1
		C296.7,335.2,296.5,336.1,295.7,336.9z M299.5,327.3c-0.5,0.3-1.1,0.5-1.7,0.6c-0.6,0.1-1-0.1-1.2-0.5c-0.2-0.4-0.1-0.9,0.4-1.3
		c0.4-0.3,0.9-0.6,1.3-1c0.4-0.4,0.8-0.8,0.9-1.3c0.5-1.3-0.4-2.3-1.8-2c-0.6,0.1-1.2,0.4-1.7,0.7c-0.8,0.5-1.6,1-2.3,1.6
		c-0.9,0.7-1.9,1.3-3,1.6c-1.4,0.4-2.7,0.1-3.7-1.1c-1-1.1-1.2-2.4-0.5-3.8c0.4-0.7,0.9-1.4,1.4-2c0.2-0.3,0.6-0.4,1-0.5
		c0.4-0.2,0.8-0.1,1.1,0.2c0.3,0.4,0.2,0.7,0,1.1c-0.3,0.6-0.7,1.2-1,1.9c-0.1,0.2-0.1,0.5-0.1,0.8c0.1,0.1,0.1,0.1,0.2,0.2
		c0.4-0.2,0.9-0.3,1.3-0.5c0.8-0.5,1.5-1,2.2-1.6c1.3-1,2.8-1.8,4.5-2c2.4-0.3,4.4,0.9,5,3C302.6,323.7,301.5,326.3,299.5,327.3z
		 M304.1,284.8c-0.2,3.5-0.5,7.1-0.8,10.6c-0.1,1.2-0.4,2.5-0.7,3.7c-0.1,0.5-0.4,1.1-0.8,1.5c-0.6,0.7-1.4,0.7-2,0
		c-0.3-0.4-0.6-1-0.8-1.5c-0.7-2.1-1.3-4.3-1.9-6.4c-0.3-0.8-0.5-1.7-1-2.5c0,0.2,0,0.5,0,0.7c0.1,1.9,0.1,3.8,0.2,5.7
		c0,1-0.1,2-0.1,2.9c0,0.2,0,0.5-0.1,0.7c-0.1,0.4-0.2,0.8-0.8,0.8c-0.5,0-0.7-0.4-0.7-0.8c-0.1-0.6-0.2-1.3-0.2-1.9
		c-0.2-3.6-0.4-7.2-0.6-10.8c0-0.4,0-0.7,0-1.1c0.1-1.2,0.6-1.7,1.8-2c1.7-0.4,2.6,0.1,3.2,1.8c0.8,2.7,1.6,5.4,2.4,8.1
		c0.1,0.2,0.1,0.4,0.2,0.7c0.1,0,0.2,0,0.2,0c0.1-2.5,0.2-5,0.4-7.6c0.1-1,0.1-2.1,0.2-3.1c0-0.2,0.1-0.5,0.2-0.7
		c0.2-0.2,0.5-0.5,0.8-0.4c0.3,0,0.6,0.3,0.7,0.6C304.2,284.1,304.2,284.5,304.1,284.8z M311.9,282.7c-0.3,0.4-0.7,0.4-1.1,0.3
		c-0.3-0.1-0.5-0.2-0.7-0.4c-0.7-0.5-1.4-0.9-2-1.5c-2.8-2.3-6-3.6-9.6-3.7c-0.4,0-0.8-0.1-1.2-0.1c-0.8-0.1-1.2-0.4-1.2-0.8
		c-0.1-0.5,0.3-0.9,1.1-1.2c0.8-0.2,1.6-0.3,2.5-0.5c2.6,0.1,5,1,7.2,2.2c1.7,1,3.3,2.2,4.7,3.7c0.2,0.2,0.4,0.4,0.6,0.7
		C312.2,281.9,312.2,282.4,311.9,282.7z M314.3,292.9c-0.4-0.5-0.7-1.1-0.9-1.7c-0.6-1.8,0.4-3.4,2.3-3.6c1-0.1,1.9,0.1,2.7,0.5
		c0.6,0.3,1.2,0.6,2,1c-0.1-0.6-0.2-1.1-0.2-1.6c0-0.9,0-1.8,0.1-2.6c0.2-1,0.8-1.7,1.8-2c1-0.3,1.9,0.1,2.5,0.8
		c0.6,0.7,1.1,1.4,1.4,2.2c1.1,2.7,1.7,5.5,2.1,8.4c0.1,0.5,0,1.1,0,1.6c-0.2,1.6-1.3,2.7-2.9,2.8c-0.9,0-1.8,0-2.7-0.3
		C319.2,297.5,316.5,295.5,314.3,292.9z M322.8,306.3c-0.6-0.2-0.7-0.9-0.2-1.3c0.3-0.3,0.7-0.5,1.2-0.6c1.4-0.3,2.8-0.5,4.3-0.8
		c2.4-0.4,4.8-0.8,7.2-1.2c0.8-0.1,1.2,0,1.4,0.4c0.2,0.5-0.1,0.9-0.8,1.2c-1,0.4-2,0.7-3.1,0.9c-2.6,0.5-5.2,0.9-7.8,1.3
		c-0.3,0-0.5,0-1,0.1C323.6,306.5,323.2,306.5,322.8,306.3z M323.9,351c-0.3,0-0.6-0.2-0.8-0.3c-1.9-1-3.7-2.2-5.3-3.6
		c-0.6-0.5-1.1-1.2-1.5-1.9c-0.8-1.5-0.1-3,1.6-3.5c1.2-0.3,2.5-0.3,3.7,0.3c2.5,1.2,3.2,4.2,1.3,6.3c-0.1,0.1-0.2,0.2-0.3,0.4
		c0.5,0.4,0.9,0.7,1.3,1c0.2,0.2,0.4,0.4,0.5,0.6C324.5,350.7,324.3,351,323.9,351z M335.8,326.4c-0.3,0.3-0.6,0.2-1.3-0.3
		c-0.8-0.6-1.7-1.1-2.6-1.7c-0.1-0.1-0.2-0.1-0.6-0.1c1.1,1.3,1.5,2.6,0.1,3.9c0.6,0.7,1.1,1.3,1.5,1.9c1.1,1.5,0.7,2.6-1.1,3.2
		c-0.1,0-0.2,0.1-0.4,0.1c2.3,3.1,2,4.5-1.3,5.7c0.2,0.4,0.4,0.8,0.6,1.2c0.7,1.5,0,2.7-1.6,3c-0.7,0.1-1.6,0-2.3-0.2
		c-2.2-0.7-4.3-1.8-6.1-3.3c-0.1-0.1-0.3-0.2-0.4-0.3c-0.3-0.3-0.6-0.6-0.3-1.1c0.3-0.5,0.7-0.4,1.2-0.3c0.5,0.2,1,0.3,1.4,0.6
		c0.6,0.3,1.2,0.7,1.9,1c1,0.5,2,1.1,3,1.6c0.5,0.2,1.1,0.3,1.7,0.4c0.4,0,0.6-0.3,0.5-0.7c-0.2-0.6-0.4-1.2-0.7-1.8
		c-0.1-0.2-0.5-0.3-0.8-0.4c-1.9-0.8-3.3-2-4.3-3.8c-0.6-1.3-0.7-2.5,0.3-3.7c0.1-0.1,0.2-0.4,0.2-0.6c0-0.7,0.3-1.1,1-1
		c0.4,0,0.7,0.1,1.1,0.3c0.7,0.3,1.4,0.6,2.1,0.8c0.8,0.3,1.7,0.6,2.5,0.8c0.4,0.1,0.8,0,1.3,0c-0.3-1.2-1.1-1.9-1.7-2.7
		c-1.5,0.3-2.9,0-4.3-0.5c-0.4-0.2-0.9-0.4-1.2-0.7c-0.2-0.2-0.3-0.6-0.2-0.9c0.1-0.2,0.5-0.4,0.7-0.4c0.4,0,0.8,0.1,1.2,0.1
		c0.8,0.1,1.7,0.3,2.5,0.5c0.3,0,0.6,0,0.9,0c0.5-0.1,0.7-0.5,0.4-1c-0.3-0.4-0.7-0.8-1.1-1.1c-0.8-0.5-1.7-1-2.5-1.5
		c-0.8-0.4-1.1-0.8-0.9-1.4c0.2-0.5,0.7-0.8,1.5-0.7c1.3,0.1,2.6,0.6,3.8,1.1c1.7,0.7,3.1,1.6,4.2,3
		C336,325.8,336.1,326.1,335.8,326.4z M335.6,320.5c-1,0-2.1,0-3.1,0c-1.6-0.1-3.3-0.4-4.8-1.1c-0.8-0.4-1.6-0.8-2.3-1.4
		c-0.7-0.5-1-1.4-0.8-2.3c0.1-0.6,0.4-1,0.9-1.2c0.5-0.2,0.8,0,0.7,0.6c-0.1,1.1,0,1.2,0.9,1.7c1.3,0.7,2.6,1,4.2,1.3
		c0.1-0.5,0.1-0.9,0.2-1.3c0-0.4,0.1-0.7,0.5-0.7c0.5,0,0.6,0.3,0.6,0.7c0,0.5,0,0.9,0,1.5c1,0.2,1.8,0.4,2.6,0.6
		c0.2,0,0.4,0.1,0.6,0.2c0.4,0.1,0.7,0.3,0.7,0.8C336.4,320.3,336,320.5,335.6,320.5z M336.7,309c-0.5,0.3-1,0.6-1.6,0.9
		c0.3,0.3,0.6,0.6,0.8,0.9c1,1.3,0.8,2.8-0.6,3.7c-0.5,0.3-1.1,0.5-1.7,0.6c-1.4,0.2-2.8,0.1-4.2-0.3c-0.4-0.1-1-0.3-1-0.9
		c0-0.6,0.6-0.6,1.1-0.7c0.5,0,1,0,1.5,0c0.6,0,1.3,0,1.9,0c0.4,0,0.7-0.1,1.1-0.2c0.8-0.3,1-0.8,0.3-1.4c-0.3-0.3-0.6-0.6-1-0.7
		c-0.9-0.3-1.9-0.6-2.9-0.8c-0.7-0.1-1.3-0.1-2-0.2c-0.2,0-0.5-0.1-0.7-0.1c-0.4-0.1-0.7-0.4-0.7-0.9c0-0.5,0.3-0.8,0.8-0.9
		c0.5-0.1,1.1,0,1.6,0c1.1,0.1,2.3,0.2,3.4,0.3c0.9,0.1,1.8,0,2.7-0.4c0.2-0.1,0.4-0.1,0.6-0.2c0.4-0.1,0.7,0,0.8,0.4
		C337.2,308.5,337,308.8,336.7,309z"/>
	<path class="st55" d="M227,221.6c-0.2-0.5-0.6-1.1-1-1.5c-0.7-0.7-1.3-0.5-1.6,0.4c-0.3,1-0.6,2.1-0.8,3.2c-0.5,3.4,0,6.8,0.4,10.3
		c0.2-0.1,0.3-0.1,0.4-0.2c0.2-0.2,0.3-0.3,0.5-0.5C227.8,229.9,228.2,225.9,227,221.6z"/>
	<path class="st55" d="M249.9,206.9c-0.7-0.3-1.5-0.4-2.3-0.1c-1.6,0.5-2,1.9-0.8,3.1c0.7,0.7,1.5,1.1,2.4,1.4
		c2.1,0.7,4.3,0.9,6.6,1c0,0,0.1-0.1,0.2-0.1c0-0.1,0-0.1,0-0.2C254.5,209.5,252.5,207.8,249.9,206.9z"/>
	<path class="st55" d="M215.5,326.9c1.3,0.6,2.6,0.7,4,0.4c0.3-0.1,0.5-0.2,0.7-0.3c1-0.6,1.2-1.8,0.5-2.7c-0.4-0.5-0.8-0.8-1.3-1.3
		c-1.5,1.2-3.3,1.4-5,1.8C214.2,325.9,214.5,326.5,215.5,326.9z"/>
	<path class="st55" d="M217.3,336.2c-0.3,0.8-0.1,1.4,0.6,1.8c1.5,0.7,3.1,0.8,4.6,0c0.9-0.4,1.1-1.2,0.6-2c-0.3-0.6-0.8-1-1.2-1.6
		c-1.3,0.7-2.5,1-3.7,1.2C217.7,335.6,217.4,335.8,217.3,336.2z"/>
	<path class="st55" d="M205.4,316.2c2.8,0.5,5.4,0,8-0.9C210.7,314.8,208,314.9,205.4,316.2z"/>
	<path class="st55" d="M209.2,321.9c2.3,0.3,4.6,0.3,6.9-0.3C214.2,320.6,210.7,320.7,209.2,321.9z"/>
	<path class="st55" d="M212,332.2c1.6,0.7,5.3,0.9,6.5,0.4C216.4,331.8,214.3,331.4,212,332.2z"/>
	<path class="st55" d="M208.5,307.6c-0.7-0.1-1.2,0-1.7,0.7c1,1.1,2.3,1,3.7,1C210.1,308.3,209.5,307.7,208.5,307.6z"/>
	<path class="st55" d="M260.7,195.5c2.6-4.6,4.4-9.2,3.2-14.5c-0.5,0.3-0.9,0.6-1.3,0.8c0.1,0.8,0.1,1.4,0.1,2.1
		c0,3.4-0.7,6.7-2.6,9.5c-0.2,0.3-0.3,0.6-0.1,0.9C260.2,194.7,260.4,195,260.7,195.5z"/>
	<path class="st55" d="M266.2,191.4c1.5-3.7,1.8-7.4,0.7-11.3c-0.6,0.1-1.1,0.2-1.7,0.3c0.8,3.6,0.4,7.1-0.4,10.5
		C265.3,191,265.7,191.2,266.2,191.4z"/>
	<path class="st55" d="M274.3,192.4c0.3-1.2,0.4-2.3,0.4-3.5c-1.9,0.5-3.7,0.4-5.5-0.1c-0.4,1-0.7,2-1.1,3
		C270.2,192.4,272.2,192.6,274.3,192.4z"/>
	<path class="st55" d="M264.1,192.6c-0.3,0.6-0.5,1.2-0.7,1.6c0.1,0.1,0.1,0.2,0.1,0.2c2.4,1.4,5,2,7.7,2.5c0.2,0,0.4,0,0.5-0.2
		c0.7-0.6,1.3-1.3,1.7-2.3C270.1,194.8,267,194.3,264.1,192.6z"/>
	<path class="st55" d="M259.2,191.9c1.3-2.6,1.9-5.3,1.9-8.3C259,185.4,257.9,190.1,259.2,191.9z"/>
	<path class="st55" d="M269.4,187.3c1.7,0.1,3.3,0.4,5-0.2c-0.3-0.8-0.5-1.5-0.7-2c-1.4,0.3-2.7,0.5-4.1,0.8
		C269.6,186.3,269.5,186.7,269.4,187.3z"/>
	<path class="st55" d="M261.8,196.8c1.6,1.8,5.1,2.6,6.7,1.6c-2.1-0.5-4.1-1.3-5.9-2.6C262.3,196.2,262.1,196.5,261.8,196.8z"/>
	<path class="st55" d="M272.6,183.2c-0.9-1.1-1.9-2-3.3-2.7c0.2,1.2,0.3,2.3,0.4,3.4C270.8,183.8,271.7,183.7,272.6,183.2z"/>
	<path class="st55" d="M129.7,241.9c0.1,1.2,0.1,2.3,0.3,3.3c0.4,2.3,1.3,4.4,2.5,6.4c0.4,0.6,0.8,1.2,1.4,1.7
		c1.3,1.2,3.2,0.8,4.1-0.7c0.2-0.3,0.3-0.7,0.5-1c0.9-2.6,1.9-5.3,2.8-7.9c0-0.1,0-0.3,0.1-0.5c-0.8,0.1-1.6,0.1-2.4,0.1
		C135.8,243.5,132.8,243.5,129.7,241.9z M137.7,247.1c-0.4,0.6-0.8,1.2-1.3,1.8c0.3,0.3,0.5,0.6,0.8,1c0.2,0.3,0.3,0.7,0,1
		c-0.3,0.3-0.7,0.3-1,0.1c-0.3-0.2-0.6-0.4-0.9-0.6c-0.4,0.3-0.7,0.6-1.1,0.9c-0.3,0.2-0.6,0.3-0.9,0c-0.3-0.3-0.3-0.6-0.1-0.9
		c0.2-0.4,0.5-0.8,0.7-1.3c-0.3-0.4-0.6-0.7-1-1.1c-0.1-0.2-0.3-0.4-0.4-0.6c-0.2-0.3-0.2-0.7,0.1-0.9c0.2-0.1,0.6-0.2,0.8,0
		c0.5,0.3,1,0.7,1.6,1.2c0.2-0.3,0.4-0.5,0.6-0.8c0.2-0.3,0.5-0.6,0.7-0.8c0.4-0.4,0.8-0.5,1.2-0.2
		C137.9,246.1,138,246.5,137.7,247.1z"/>
	<path class="st55" d="M152.8,216.2c0.2-0.1,0.5-0.2,0.7-0.4c0.8-0.6,1.7-1.2,2.5-1.9c0.2-0.1,0.3-0.3,0.5-0.6c-1.1-0.2-2,0-2.9,0.2
		c-1.9,0.5-3.4,0-4.6-1.6c-0.3-0.3-0.5-0.7-0.8-1c0,1.3,0.3,2.5,0.8,3.6C149.8,216.6,150.9,217,152.8,216.2z"/>
	<path class="st55" d="M232.7,189.9c-2.1-2.4-4.1-4.9-6.1-7.3c1,3,2.3,5.9,3.8,8.7C231.2,190.8,231.9,190.4,232.7,189.9z"/>
	<path class="st55" d="M330.6,334.4c-1.2-1.5-3-2-4.7-2.7c-0.5,0.6-0.4,1.2-0.1,1.8c0.5,1.1,1.4,2,2.4,2.6c0.5,0.3,1,0.5,1.6,0.6
		c0.5,0.1,1.1,0,1.4-0.5c0.3-0.6,0-1-0.4-1.4C330.8,334.6,330.7,334.5,330.6,334.4z"/>
	<path class="st55" d="M318.4,157.2c-2.3-0.1-4.5,1.4-4.4,3.3c2.8,0.3,5.6,0.7,8.4,1C322.2,158.8,320.8,157.3,318.4,157.2z"/>
	<path class="st55" d="M325,139.2c-0.6-2.2-2.8-3.2-5.2-2.1c-0.8,0.4-1.3,1-1.3,1.9c2.2,0.3,4.4,0.6,6.6,0.9
		C325.1,139.6,325,139.4,325,139.2z"/>
	<path class="st55" d="M283.6,340.2c-0.6,0-1.3,0.1-1.6,0.7c-0.3,0.6-0.2,1.2,0.2,1.8c0.2,0.3,0.4,0.6,0.6,0.8
		c0.8,0.8,1.7,1.4,2.8,1.7c0.5,0.2,1.1,0.3,1.7,0.2c1.3-0.1,1.9-1.1,1.2-2.3C287.3,341.4,285.6,340.6,283.6,340.2z"/>
	<path class="st55" d="M321.8,129.5c1.1,0.3,2.2,0.5,3.5,0.8c-0.3-1.4-0.6-2.4-1.6-3.1c-1-0.7-2.4-0.2-2.6,1
		C321,128.8,321.2,129.4,321.8,129.5z"/>
	<path class="st55" d="M199.3,335.9c0-0.7,0-1.3,0-2.1c-1.4,0.2-2.6,0.1-3.9,0.6C196.1,335.1,197.9,335.8,199.3,335.9z"/>
	<path class="st55" d="M194.3,340.7c0.5,0.6,2,1.1,3,1C196.5,340.5,195.1,340.1,194.3,340.7z"/>
	<path class="st55" d="M321.4,343.7c-1.1-0.8-2.3-0.8-3.5-0.3c-0.5,0.2-0.7,0.6-0.4,1.2c0.2,0.4,0.5,0.9,0.9,1.2
		c0.9,0.8,1.8,1.5,2.9,2.3c0.4-0.5,0.7-0.9,0.9-1.4C322.7,345.6,322.4,344.3,321.4,343.7z"/>
</g>
</svg>
