<svg id="Layer_1" data-name="Layer 1" xmlns="http://www.w3.org/2000/svg" viewBox="0 0 239.5 239.5"><defs><style>.cls-1{fill:#fff;stroke:#231f20;stroke-miterlimit:10;}</style></defs><title>forma</title><path class="cls-1" d="M26.2,102.3a103.3,103.3,0,0,1,44.7-3.1c19,2.7,38.4,10.3,57.7,22.6s35.2,18.6,51.6,21.6a88.8,88.8,0,0,0,37.1-.7,75.4,75.4,0,0,0,26.2-12.2c.1-1.8.2-3.5.2-5.3A119.3,119.3,0,0,0,6.1,110.5,97.5,97.5,0,0,1,26.2,102.3Z" transform="translate(-4.7 -5.5)"/><path class="cls-1" d="M220.9,154.1a94.7,94.7,0,0,1-23.3,2.9,104.3,104.3,0,0,1-19-1.8c-18.1-3.2-37.1-11.1-56.4-23.3s-35.7-18.5-53-20.9a94.5,94.5,0,0,0-39.7,2.7A90.9,90.9,0,0,0,5.2,125v.2a119.2,119.2,0,0,0,236.7,20.5A87.2,87.2,0,0,1,220.9,154.1Z" transform="translate(-4.7 -5.5)"/></svg>